<svg width="256" height="256" viewBox="0 0 256 256" fill="none" xmlns="http://www.w3.org/2000/svg">
<g clip-path="url(#clip0_4_2)">
<rect width="256" height="256" fill="white"/>
<rect width="256" height="256" rx="60" fill="#4F6E29"/>
<path d="M218.09 152.958C204.367 152.958 193.24 141.831 193.24 128.108C193.24 114.385 204.367 103.257 218.09 103.257C219.573 103.257 221.025 103.396 222.438 103.643L218.09 89.0991H68.2334V89.1068C46.9651 89.5074 29.841 106.87 29.841 128.239C29.841 149.603 46.9612 166.97 68.2334 167.367V167.374H218.086L222.434 152.569C221.025 152.819 219.573 152.958 218.09 152.958Z" fill="#B6DE64"/>
<mask id="mask0_4_2" style="mask-type:luminance" maskUnits="userSpaceOnUse" x="29" y="89" width="194" height="79">
<path d="M218.09 152.958C204.367 152.958 193.24 141.831 193.24 128.108C193.24 114.385 204.367 103.257 218.09 103.257C219.573 103.257 221.025 103.396 222.438 103.643V89.0991H68.2334V89.1068C46.9651 89.5074 29.841 106.87 29.841 128.239C29.841 149.603 46.9612 166.97 68.2334 167.367V167.374H218.086L222.434 152.569C221.025 152.819 219.573 152.958 218.09 152.958Z" fill="white"/>
</mask>
<g mask="url(#mask0_4_2)">
<path d="M193.039 108.407H19.0798V128.088H193.039V108.407Z" fill="#A9CC54"/>
<path d="M223.59 147.697H19.0798V175.563H223.59V147.697Z" fill="#A9CC54"/>
</g>
<path fill-rule="evenodd" clip-rule="evenodd" d="M218.09 108.033C205.896 108.033 196.883 116.842 196.883 128.085C196.883 139.485 206.061 148.521 218.09 148.521C223.301 148.521 227.526 152.746 227.526 157.957C227.526 163.169 223.301 167.394 218.09 167.394C196.272 167.394 178.011 150.531 178.011 128.085C178.011 105.48 196.437 89.1607 218.09 89.1607C223.301 89.1607 227.526 93.3855 227.526 98.5971C227.526 103.809 223.301 108.033 218.09 108.033Z" fill="#DDF4A4"/>
</g>
<defs>
<clipPath id="clip0_4_2">
<rect width="256" height="256" fill="white"/>
</clipPath>
</defs>
</svg>
