<?xml version="1.0" encoding="UTF-8"?>
<svg id="Layer_3" xmlns="http://www.w3.org/2000/svg" version="1.1" viewBox="0 0 292.6 292.6">
  <!-- Generator: Adobe Illustrator 29.8.2, SVG Export Plug-In . SVG Version: 2.1.1 Build 3)  -->
  <defs>
    <style>
      .st0 {
        fill: #141b1f;
      }

      .st1 {
        fill: #fff;
      }
    </style>
  </defs>
  <rect class="st0" width="292.6" height="292.6" rx="68.58" ry="68.58"/>
  <g>
    <path class="st1" d="M53.7,53.7v185.2h185.2V53.7H53.7ZM227.33,227.32H65.28V65.27h162.05v162.05Z"/>
    <path class="st1" d="M161.51,212.86c-3.13.15-6.31-.13-9.43,0v4.33h18.82s0-26.04,0-26.04h-4.33s0,14.48,0,14.48l-9.3.02-.84-14.5h-4.33s-.03,17.98-.03,17.98l14.5,1.57c.97,3.37-3.11,2.06-5.05,2.16Z"/>
    <path class="st1" d="M215.78,191.99l-14.5-.82v-7.25s-4.33,0-4.33,0v26.04h18.82s.02-17.98.02-17.98ZM211.42,205.63h-10.14v-10.14h10.14v10.14Z"/>
    <path class="st1" d="M138.36,198.39c-3.13.14-6.31-.11-9.43,0v11.59s18.82,0,18.82,0v-18.82h-18.82v4.34l14.48.74c.96,3.36-3.11,2.07-5.05,2.16ZM133.29,205.61c-1.2-5.37,7.05-2.06,10.11-2.88,1.2,5.37-7.05,2.06-10.11,2.88Z"/>
    <polygon class="st1" points="110.12 209.97 110.12 195.49 124.6 195.49 124.6 191.16 105.78 191.15 105.79 209.97 110.12 209.97"/>
    <polygon class="st1" points="183.91 205.63 179.58 205.62 179.58 183.92 175.24 183.92 175.24 209.96 183.93 209.96 183.91 205.63"/>
    <rect class="st1" x="188.27" y="191.15" width="4.33" height="18.83"/>
    <rect class="st1" x="188.27" y="183.93" width="4.33" height="4.33"/>
  </g>
</svg>