<?xml version="1.0" encoding="UTF-8"?>
<svg id="Layer_3" xmlns="http://www.w3.org/2000/svg" version="1.1" viewBox="0 0 292.6 292.6">
  <!-- Generator: Adobe Illustrator 29.8.2, SVG Export Plug-In . SVG Version: 2.1.1 Build 3)  -->
  <defs>
    <style>
      .st0 {
        fill: #52894a;
      }

      .st1 {
        fill: #296a1d;
      }

      .st2 {
        fill: #0ea8a3;
      }

      .st3 {
        fill: #c0be0e;
      }

      .st4 {
        fill: #1bb7ae;
      }

      .st5 {
        fill: #fec1ad;
      }

      .st6 {
        fill: #a7c11a;
      }

      .st7 {
        fill: #026c7e;
      }

      .st8 {
        fill: #02707c;
      }

      .st9 {
        fill: #2b6c22;
      }

      .st10 {
        fill: #c86f1a;
      }

      .st11 {
        fill: #6a9f4b;
      }

      .st12 {
        fill: #408521;
      }

      .st13 {
        fill: #b1ba26;
      }

      .st14 {
        fill: #734812;
      }

      .st15 {
        fill: #fc6348;
      }

      .st16 {
        fill: #61a227;
      }

      .st17 {
        fill: #3e821e;
      }

      .st18 {
        fill: #fed0c1;
      }

      .st19 {
        fill: #9fcb39;
      }

      .st20 {
        fill: #dbd815;
      }

      .st21 {
        fill: #fee2d9;
      }

      .st22 {
        fill: #47660b;
      }

      .st23 {
        fill: #617d0b;
      }

      .st24 {
        fill: #b9bf19;
      }

      .st25 {
        fill: #519320;
      }

      .st26 {
        fill: #993f11;
      }

      .st27 {
        fill: #feb9a2;
      }

      .st28 {
        fill: #a9370d;
      }

      .st29 {
        fill: #fed8cc;
      }

      .st30 {
        fill: #fde8e1;
      }

      .st31 {
        fill: #f1a03b;
      }

      .st32 {
        fill: #468a28;
      }

      .st33 {
        fill: #6e3a19;
      }

      .st34 {
        fill: #0d9096;
      }

      .st35 {
        fill: #178fa4;
      }

      .st36 {
        fill: #c17019;
      }

      .st37 {
        fill: #fee9e2;
      }

      .st38 {
        fill: #32510c;
      }

      .st39 {
        fill: #a45924;
      }

      .st40 {
        fill: #84bb2b;
      }

      .st41 {
        fill: #884219;
      }

      .st42 {
        fill: #fbd8ab;
      }

      .st43 {
        fill: #1db7aa;
      }

      .st44 {
        fill: #ea4128;
      }

      .st45 {
        fill: #fedcd1;
      }

      .st46 {
        fill: #559822;
      }

      .st47 {
        fill: #67a726;
      }

      .st48 {
        fill: #059796;
      }

      .st49 {
        fill: #1ca499;
      }

      .st50 {
        fill: #509423;
      }

      .st51 {
        fill: #77b228;
      }

      .st52 {
        fill: #2d7123;
      }

      .st53 {
        fill: #52934a;
      }

      .st54 {
        fill: #2d98ab;
      }

      .st55 {
        fill: #2aa5a7;
      }

      .st56 {
        fill: #45adba;
      }

      .st57 {
        fill: #85bb38;
      }

      .st58 {
        fill: #cece10;
      }

      .st59 {
        fill: #4a2b13;
      }

      .st60 {
        fill: #68a548;
      }

      .st61 {
        fill: #b7c615;
      }

      .st62 {
        fill: #dc7d28;
      }

      .st63 {
        fill: #31c8bb;
      }

      .st64 {
        fill: #467c1f;
      }

      .st65 {
        fill: #fec8b7;
      }

      .st66 {
        fill: #408522;
      }

      .st67 {
        fill: #3a7d37;
      }

      .st68 {
        fill: #feefea;
      }

      .st69 {
        fill: #4d7e34;
      }

      .st70 {
        fill: #37ceb9;
      }

      .st71 {
        fill: #539626;
      }

      .st72 {
        fill: #548316;
      }

      .st73 {
        fill: #f19733;
      }

      .st74 {
        fill: #9e5522;
      }

      .st75 {
        fill: #abb60c;
      }

      .st76 {
        fill: #016674;
      }

      .st77 {
        fill: #12788c;
      }

      .st78 {
        fill: #9a4e20;
      }

      .st79 {
        fill: #27c3b2;
      }

      .st80 {
        fill: #db3c26;
      }

      .st81 {
        fill: #fa7757;
      }

      .st82 {
        fill: #c46b22;
      }

      .st83 {
        fill: #77830b;
      }

      .st84 {
        fill: #387b1b;
      }

      .st85 {
        fill: #55862f;
      }

      .st86 {
        fill: #fed5c7;
      }

      .st87 {
        fill: #5e9959;
      }

      .st88 {
        fill: #809b0d;
      }

      .st89 {
        fill: #929a0a;
      }

      .st90 {
        fill: #d98120;
      }

      .st91 {
        fill: #7bb528;
      }

      .st92 {
        fill: #7b9717;
      }

      .st93 {
        fill: #046f82;
      }

      .st94 {
        fill: #e78b2f;
      }

      .st95 {
        fill: #9aac0c;
      }

      .st96 {
        fill: #518649;
      }

      .st97 {
        fill: #8e6351;
      }

      .st98 {
        fill: #93a115;
      }

      .st99 {
        fill: #7f4410;
      }

      .st100 {
        fill: #ad561d;
      }

      .st101 {
        fill: #82461f;
      }

      .st102 {
        fill: #70a568;
      }

      .st103 {
        fill: #50901d;
      }

      .st104 {
        fill: #f69e3d;
      }

      .st105 {
        fill: #67a728;
      }

      .st106 {
        fill: #d57b1e;
      }

      .st107 {
        fill: #4c7110;
      }

      .st108 {
        fill: #61a124;
      }

      .st109 {
        fill: #d7d115;
      }

      .st110 {
        fill: #79b633;
      }

      .st111 {
        fill: #d9a47b;
      }

      .st112 {
        fill: #5f390e;
      }

      .st113 {
        fill: #137e91;
      }

      .st114 {
        fill: #fdf5f2;
      }

      .st115 {
        fill: #64e0c8;
      }

      .st116 {
        fill: #559825;
      }

      .st117 {
        fill: #feede7;
      }

      .st118 {
        fill: #0a9b9b;
      }

      .st119 {
        fill: #66391d;
      }

      .st120 {
        fill: #743b0d;
      }

      .st121 {
        fill: #fec8b6;
      }

      .st122 {
        fill: #3a801f;
      }

      .st123 {
        fill: #814b2d;
      }

      .st124 {
        fill: #626f0a;
      }

      .st125 {
        fill: #048a8d;
      }

      .st126 {
        fill: #e6821d;
      }

      .st127 {
        fill: #f49b39;
      }

      .st128 {
        fill: #febba5;
      }

      .st129 {
        fill: #548c32;
      }

      .st130 {
        fill: #a35513;
      }

      .st131 {
        fill: #165717;
      }

      .st132 {
        fill: #ebae90;
      }

      .st133 {
        fill: #62350c;
      }

      .st134 {
        fill: #f9d7ad;
      }

      .st135 {
        fill: #b6cb2d;
      }

      .st136 {
        fill: #e6912e;
      }

      .st137 {
        fill: #cf701c;
      }

      .st138 {
        fill: #9dc936;
      }

      .st139 {
        fill: #b9c00e;
      }

      .st140 {
        fill: #047e8a;
      }

      .st141 {
        fill: #648b10;
      }

      .st142 {
        fill: #447626;
      }

      .st143 {
        fill: #4a8f2a;
      }

      .st144 {
        fill: #1bbbb0;
      }

      .st145 {
        fill: #3f8134;
      }

      .st146 {
        fill: #4a5d0a;
      }

      .st147 {
        fill: #296c1b;
      }

      .st148 {
        fill: #fb6c53;
      }

      .st149 {
        fill: #5d9f27;
      }

      .st150 {
        fill: #b48b53;
      }

      .st151 {
        fill: #1db1a3;
      }

      .st152 {
        fill: #9ea30c;
      }

      .st153 {
        fill: #0ea4a2;
      }

      .st154 {
        fill: #e7dd27;
      }

      .st155 {
        fill: #fed9cd;
      }

      .st156 {
        fill: #4bd8c0;
      }

      .st157 {
        fill: #c5cc14;
      }

      .st158 {
        fill: #a9b911;
      }
    </style>
  </defs>
  <rect class="st153" y="0" width="292.6" height="292.6" rx="68.58" ry="68.58"/>
  <g id="LZuAjh.tif">
    <g>
      <path class="st117" d="M229.64,195.94l-1.47.23c-2.54-1.02-7.84-5.21-8.78-7.68l-.59-.83c34.24-47.47-19.19-87.14-65-88-1.35.29-2.55.33-3.61.13l-.23-4.95c-1.63-1.43-2.28-5.03-1.4-6.99,24.49.44,49.45,6.69,69.39,21.24,27.01,19.71,37.36,52.11,16.73,80.94-1.51,2.11-3.15,4.13-5.04,5.91Z"/>
      <path class="st68" d="M81,117.67l.22,1.13c-17.45,15.21-26.01,41.75-12.82,62.69,1.23.98,1.86,1.91,1.88,2.8-.87,1.34-7.12,7.84-8.1,8.03-.24.05-.49-.02-.76-.11-3.8-7.22-8.17-13.7-10.11-21.8-5.23-21.84,3.58-41.52,19.43-56.24l7-5.82c.23,0,.45.03.65.11.43.17,2.78,7.72,3.05,8.72.03.12-.17.29-.44.49Z"/>
      <path class="st34" d="M67.02,208.99c2.41-.65,3.26.3,4.29,2.25l19.45,8.8c17.27,12.29,36.83,21.55,58.26,14.46l5.6-.81c1.76-1.39,6.48-1.65,8.39-.47,1.17-1.44,5.42-2.53,6.99-1.4,1,.51.99,1.42-.02,2.71l-2.2,2.61c4.72-1.17,9.35-2.86,13.78-4.85l1.03.47c1.7-1.39,2.94-1.7,3.73-.93,3.53.14,12.44.99,6.74,5.38l-5.81,1.36-.47.72c-18.24,3.04-37.47,3.4-55.92,2.33-2.62-.23-5.2-.8-7.72-1.71l-.2-1.08c-3.92-.5-7.69-1.68-11.28-3.32l-1.77-1.8c-2.52-.03-5.04-.99-7.56-2.89-8.45-5.96-17.56-10.05-27.33-12.27l-1.46-1.15c-1.88-.86-3.93-1.34-6.15-1.42-2.28-.65-7.06-4.25-5.03-6.5.48-1.01,3.47-.74,4.66-.47Z"/>
      <path class="st1" d="M75.87,86.45c-.17-.33-.37-.84-.17-1.01,1.17-.96,10.92-7.29,11.51-6.84.39.29.38.92.29,1.43l-4.61,4.94,1.16,3.28c.05.8,1.02,11.22,1.55,11,.55-5.77,5.41-9.97,3.87-1.7l.06,1.07c3.84,6.9,2.8,13.9-2.95,19.04.62.81-1.53,4.1-2.77,3.21-5.17-3.7-6.91-20.44-5.61-26.97.14-.72.32-1.25.47-1.86-.36-.72-.54-1.39-.54-2-4.21,2.44-7.93,5.58-11.5,8.85l-1,.13c-1.09,1.23-2.17,2.47-3.26,3.73.6.86-.89,2.53-1.86,2.33-3.66,2.14-1.99-2.83-1.01-5.04,1.45-3.26,3.61-5,6.29-7.13,2.98-2.37,6.82-4.73,10.09-6.47Z"/>
      <path class="st40" d="M141.11,50.11l.25,1.03c7.48,2.38,20.61,13.82,21.03,21.77.02.32-.28,1.49-.31,1.43-.17-.32.16-2.15.93-1.39.15.98.69,7.16.46,7.46-.31.03-.62-.01-.93,0-1.01-.39-1.66-.89-.93-1.86-3.02-3.14-6.6-5.77-10.66-7.66l-.05-.73c-4.02-1.09-7.39-2.96-10.12-5.62-.56-2.25-1.57-4.02-3.04-5.32-3.88-1.1-2.16-3.01,1.13-2.59,1.02-.33,1.1-.54.37-1.38-.16.4-.31.4-.47,0-2.51-1.32-5.18-2.28-8.02-2.9-1.07-.71-.88-1.3.56-1.76,4.12-.87,5.52-1.12,9.79-.47Z"/>
      <path class="st77" d="M60.96,217.37c2.8,2.56,5.73,4.1,9.5,5.45,11.53,4.63,23.25,8.69,35.16,12.18l1.47,1c1.32.38,2.5.36,3.56-.04,4.06,1.11,8.16,2.06,12.29,2.84,1.4.51,4.71,2.26,4.99,2.32.9.19,2.31-.42,2.93.48-16.71-.97-30.66-3.67-46.37-9.31-10.34-3.72-20.87-7.35-30.98-10.72-1.62-1.32-1.93-2.25-.93-2.8-.26-1.04.66-1.04,1.4-.47,1.42-1.78,5.12-2.21,6.99-.93Z"/>
      <path class="st115" d="M246.88,206.19c.24,2.65-1.6,2.02-3.04.49-2.67,3.85-7.21,6.21-11.87,6.5l-.62.95c-1.5.32-11.9,2-12.48,1.75-.39-.17-.68-.46-.88-.84-3.37.93-3.88-1.35-.27-1.79.51-.06,8.53-1.18,8.23-1.48-2.22-2.19-7.59-2.7-10.6-2.76l-.62-.96c.8-.29,1.73-.29,2.8,0l1.09-1.04c5.42-.55,10.84-2.04,15.16-5.48l1.92-.47c-.79-1.12.74-2.07,1.86-1.86.47.16,1.3,0,2.19.36,2.63,1.06,6.24,3.86,7.13,6.63Z"/>
      <path class="st63" d="M231.97,213.18c3.28-1.51,6.54-2.43,9.32-4.89.71-.62,2.36-3.02,2.56-3.02.53-.01,2.04,3.41,3.03.92,2.87,8.93-5.73,13.5-12.27,17.32-3.92,2.29-8.24,4.26-12.43,5.98-1.57.04-3.11.32-4.62.84l-.97-.84c-.49.83-1.11.97-1.4,0-.82-1.07-.01-1.94,2.41-2.63-1.01-.01-3.9-.93-2.92-2.22l3.77-.28.99-.99c3.53-.19,6.97-.94,10.35-1.95l1.24.61.78-1.2c8.05-2.19,10.07-3.73,6.06-4.61l-1.45-1.68c-2.21.17-3.7-.29-4.46-1.37Z"/>
      <path class="st149" d="M92.65,45.45l1.15-.19c2.92,3.02,6.26,5.58,10.04,7.18.4.73.9,1.26,1.4,2.33-.53,1.14-3.2,4.35-4.46,4.18-1.08-.9-1.61-1.05-1.6-.45,1.5,3.06-3.44,1.74-5.24,1.02-3.86-1.53-6.96-3.09-9.45-6.59-2.07-2.91-4.17-6.86,1.03-5.31-1.18-.56-1.75-1.28-1.72-2.16-1.15-.7-.77-.97.47-.93,2.14-1.93,6.1-.6,8.39.93Z"/>
      <path class="st118" d="M215.2,229.49c.46,0,.93.02,1.4,0,2,1.68-1.62,1.95-1.63,1.66,0-.1,1.94-.26,1.17.67-9.19,3.18-19.76,5.85-29.36,7.45l-.69-.93c2.85-1.46,6.25-.61,8.14-3.5-1.94-2.75-5.66-.69-7.91-3.03l1.17-1.29c8.59-2.05,17.36-2.71,26.32-1.98l1.4.94Z"/>
      <path class="st32" d="M79.13,62.23l3.39.12c0,.26.03.48.12.51,1.8.64,7.29,3.17,7.43,5.06.07,1-1.87,1.4-2.09.37l-.96-.04c-4.34-4.68-13.31-1.96-12.81,4.85l-.67.78c.34,1.3-.57,2.53-1.86,1.86-1.46,2.77-6.26,7.75-6.52,1.4-.24,0-.47,0-.67-.09-1.72-.81,2.54-7.6,3.46-8.76l.07-.85c1.41-.85,2.63-1.8,3.65-2.87,2.38-1.14,4.54-1.79,7.46-2.33Z"/>
      <path class="st105" d="M122,38.46c.82.28.93.97.35,2.08,2.23-1.71,3.21-.73,2.94,2.93,1.27.68,2.25,1.58,2.94,2.7.55-1.22,1.51-2.29,2.15-.72-.4.71-3.05,5.8-2.79,6.05,1.25-.34,2.45-.66,3.73-.93-.8,1.2-.5.74.47,1.15,2.36.98,6.34.72,6.99,3.51-1.89.55-5.48,1.38-6.99,0-2.28-.64-4.61-.99-7.01-1.02-.4-.84-.32-1.91.23-3.22-3.33-.39-4.76-2.26-5.07-5.54-2.93,2.92-4.96,2.16-3.49-2.08-1.36-.63-1.18-1.2-.04-2.12,2.37-1.69,2.77-1.83,5.59-2.8Z"/>
      <path class="st54" d="M47.45,201.53l.15,1.09c-6.2,3.24-12.04,14.81.46,9.3l.79.8,1.03-.12,2.4,3.45c1.83.59,2.4,1.34,1.7,2.26-.39.08-.89.35-1.4.47-.47,1.21-1.87,1.67-4.19,1.4-3.9-1.51-10.87-4.21-12.12-8.39-.35-2.91.71-4.84,2.69-6.8,1.72-1.7,6.35-4.76,8.49-3.45Z"/>
      <path class="st138" d="M137.38,71.54c.88.03,1.35.34,1.4.93,4.63,4.55,7.93,9.07,9.79,15.38.68,2.31,1.01,4.62,1.4,6.99.18.79.18,1.57,0,2.33,0,1.09-.38,7.03-1.73,4.57.34-7-3.42-13.17-7.03-18.87l-6.91-9.32c-.81-1.3-.87-2.44-.17-3.4,1.19-.96,3.18-.17,3.26,1.4Z"/>
      <path class="st147" d="M108.02,51.51c1.5.11,2.97,2.26,3.12,4.17,1.74-4.06,2.51-4.08,5.94-1.64,2.67.29,3.45.93,2.34,1.92.19,1.44-2.68,3.75-3.95,2.53-1.1.97-2.45,1.6-4.04,1.89-1.11,3.89-4.03,4.54-5.69.55-.11,2.8-.81,5.37-2.09,7.72-1.85,2.16-6.29-.14-5.41-2.7.65-.7,1.7-1.28,3.15-1.74-.59-1.66-.24-2.67,1.4-3.31.09-3.42,1.06-5,2.91-4.73.12.3-.11,1.77.93.93.05-.04-.3-.74-.14-1.27.43-1.45.97-2.92,1.54-4.31Z"/>
      <path class="st19" d="M163.01,72.94l-.93,1.39c-.33-1.61-.8-3.79-1.52-5.24-1.7-3.44-9.59-11.63-12.79-13.77-2.91-1.94-5.99-2.38-8.53-4.51l1.86-.7c12.19,1.88,20.07,10.75,21.9,22.83Z"/>
      <path class="st71" d="M116.41,41.26c-1.21,1.43.86.64.96,2.09.06.98-.8,2.34-.48,3.51l3.72-3.26c.59,3.66.55,6.62,5.16,6.27.53.31.18.97-.03,1.41l1.4-.22-2.33,2.33c2.46.29,5.02.1,6.99,1.87l-1.54.94c-3.15-.46-6.41-.44-9.78.05l-.33-.52c-.64-.74-.34-1.44.89-2.1-2.34-.6-3.46-2.57-3.79-4.8-2.65,5.12-5.66,4.5-4.69-1.31-.49-.47-.92-1-1.27-1.58,1.77-2.24,2.92-3.09,5.13-4.66Z"/>
      <path class="st110" d="M122,38.46c2.09-.72,11.15-3.38,12.54-1.35,1,1.45-3.35,6.94-4.15,8.34-1.35-.82-2.18,5.07-3.26,3.72,1.24-4.27-1.85-3.92-2.57-5.11-.56-.92-.09-2.66-.23-3.73l-3.72,2.8,1.39-4.66Z"/>
      <path class="st12" d="M111.28,45.92c4.36.29.65,4.72,2.57,5.59.67.3,2.49-3.3,2.98-3.89,1.27-1.33,1.31,1.83,1.81,2.83,1.21,2.47,3.27,2.74,5.69,2-1.1,1.51-3.04,1.63-4.19,3.26l.17.47c2.98-.23,5.98-.38,8.99-.47,2.08,1.36-1.52,3.4-2.97,3.8,2.54,3.7,5.58,5.43,9.82,6.67l.3,1.17-1.29.79c-3.73-.02-7.25-.67-10.81-1.56-2.3-.58-8.94-3.08-5.7-5.74-2.02.37-3.39.06-4.1-.93-.63-.38-.32-.85.93-1.4,1.4-.53,3.26-2.06,4.19-3.26-2.42.39-4.12-.79-5.83-2.33-.64.01-1.43,3.09-2.08,3.5-2.14,1.36-1.23-2.1-2.34-2.87-.5-.35-1.28.44-1.41.29-.32-.4.89-1.95,0-2.33,1-2.44,1.63-3.52,3.26-5.59Z"/>
      <path class="st56" d="M61.42,193.61l.29,1.12c-2.42,2.1-5.16,3.75-8.21,4.94-.62,1.56-4.69,2.9-6.06,1.86-5.91,1.96-10.09,3.3-11.18,10.25-1.02-3.45,0-5.05,2.58-7.44,4.81-4.47,15.35-8.72,21.65-10.73.65-.7.97-.7.93,0Z"/>
      <path class="st84" d="M105.23,54.77c.24.52.3.96.47,1.4-2.28,1.22-1.33,3.62-2.09,5.13-.36.72-1.43.77-1.59.99-.32.47.57,1.5.21,2.26-.54,1.13-2.8,1.6-3.99,1.4l-1.14.28c-2.51-1.93-5.16-3.7-7.96-5.19l-.22-1.15c-.57-.35-.72-.66-.47-.93l1.04-.54c.98,1.02,10.19,4.16,10.39,2.51-.82-.76-1.06-1.57-.71-2.44-.37-.55-2.55-3.49-2.33-3.72.87-.91,2.54,3.27,3.96,3.27s2.36-3.35,4.43-3.27Z"/>
      <path class="st135" d="M219.39,188.49c3.08,2.48,6.8,5.56,10.25,7.45,2.66,1.46,5.09,2.26,7.92,3.26-.34.95-1.26,1.29-1.86,1.86-2.08,1.71-7.6-.44-7.92-2.8-1.53.26-6.17-2.81-7.1-4.02-.21-.28-.04-.75.11-1.11-1.44.63-3.53-3.71-2.33-4.66-.21-.14-.2-.3,0-.47.83-.95.95-.79.93.47Z"/>
      <path class="st145" d="M74.01,48.71c.85-.34,1.68-.45,2.49-.34.45.07,6.34,5.93,5.44,6.86l-.9.62c-3.65-1.79-12.66-4.46-3.15-.75,1.6.61,4.6,2.68,1.71,2.93-4.08-2.16-7.22-3.09-11.65-4.19-1.8-.99-2.38-2.02-1.73-3.09.23-.38,7.76-4.32,7.79-2.04Z"/>
      <path class="st57" d="M103.83,52.44c-.71.73-3.03-.37-3.68-.74-2.37-1.35-5.48-4.31-7.5-6.24-3.47-1.33-4.25-2.42-2.33-3.26,6.66.57,10.53,4.82,13.51,10.25Z"/>
      <path class="st0" d="M58.16,80.86l.4,1.45c-2.92,7.51-3.91,16-1.57,23.81.23.78.77,1.62,1.63.84-.49-1.19.13-1.81,1.86-1.86.63-.73.99-1.39,1.86-2.33.88-1.28,1.97-2.37,3.26-3.26.65-1.14,1.18-.78.93.47-1.75,1.68-7.01,8.46-8.39,9.09-.37.17-.68.35-1.1.2-4.83-7.67-3.67-20.23-.29-28.39.73-1.15,1.19-1.15,1.4,0Z"/>
      <path class="st53" d="M84.26,44.52l-.47.93c-.78.79-1.99,1.24-3.63,1.35-2.01,1.06-4.07,1.7-6.15,1.91-3.09-.05-4.58,2.22-7.45,2.33-.16,1.23,1.16,1.56,2.09,1.86l-.69.93c-.78-.19-2.06-.09-2.58-.92-1.74-2.83,6.73-6.62,8.64-7.46,3.21-1.03,6.4-1.69,9.57-1.97l.68,1.04Z"/>
      <path class="st9" d="M81.93,55.24c1.8-.84,6,1.9,6.52,3.73l.47.93c-.51.76-1.47.68-2.88-.26.91.82.89,1.62-.38,1.66-.13.41-.29.4-.47,0-2.01-.8-3.71-2.27-5.59-3.26.94-1.35.22-.69-.46-1.15-2.23-1.51-4.36-1.81-6.39-2.95-1.78-1-2.16-2.03.35-1.75s6.56,2.01,8.83,3.06Z"/>
      <path class="st96" d="M86.59,117.67c1.15-1.49,1.91-1.25.93.47.77,1.17-.92,4.37-2.33,3.73-1.74,1.97-5.34-2.42-4.19-4.19-1.14-2.18-2.82-6.94-3.26-9.32-.95-5.16-.48-9.42.47-14.44.98,2.11-.1,4.04-.04,5.82.05,1.49.36,3.99.56,5.53.68,5.25,2.29,10.82,5.31,15.2.99.23,2.13-2.09,2.55-2.8Z"/>
      <path class="st85" d="M160.68,78.53c.16-.44.61-.31.93,0,.34.61.77,1.16.93,1.86-2.45.07-3.71-1.84-5.74-2.88-6.42-3.27-11.12-3.93-18.02-5.05-1.25-.2-1.15-.81-1.4-.93l.65-1.07c8.44-.84,16.31,2.8,22.65,8.06Z"/>
      <path class="st60" d="M90.32,42.19c-.9,1.1,1.37,2.35,2.33,3.26-2.75-.91-5.54-.81-8.39-.93-1.02-.04-1.99-.53-3.01-.49-2.38.1-4.93,2.49-7.24,1.42,5.28-2.33,10.41-3.77,16.31-3.26Z"/>
      <path class="st69" d="M78.67,92.04c.27-2.03-1.94-.11-2.39.18-3.18,2.02-7.02,5.13-9.73,7.74l-.93-.47v-.47c3.97-4.05,7.89-7.3,12.82-10.24,1.15.98.45,2.29.23,3.25Z"/>
      <path class="st87" d="M71.68,64.55c.98,1.37.14.69-.47,1.14-1.13.85-2.19,1.65-3.26,2.58-3.14,3.77-5.96,7.74-8.46,11.93l-1.32.65h-1.4c2.82-6.82,8.22-13.09,14.91-16.31Z"/>
      <path class="st102" d="M70.28,184.29c1.03-.46,1.57.39,1.04,1.32-.98,1.72-5.38,5.36-6.9,6.05l.27.55c.16,1.4-2.37,2.57-3.26,1.4-.26.08-.68-.08-.93,0,.34-.41.58-1.04.93-1.4,2.39-2.48,6.16-5.53,8.85-7.92Z"/>
      <path class="st144" d="M222.19,229.49c-2,.82-4.01,1.62-6.06,2.33-.51-.64-1.58-.15-1.4-.93,1.32.2,1.53-.25,1.86-1.4,1.88-.07,4.09-1.03,5.59,0Z"/>
      <path class="st35" d="M52.57,218.77c-.05,1.32,1.9,1.71.93,2.8-1.55-.51-3.53-.78-5.13-1.4,1.13-.89,2.82-1.07,4.19-1.4Z"/>
      <path class="st17" d="M85.66,61.29c1.19-.28,1.64.51,1.16,1.58,2.31,1.26,4.69,2.66,6.03,5,2.38-.43,3.4.02,3.06,1.35l-1.13.88c-3.72-.76-17.89,1.61-17.31,6.49.7,5.91,14.68-1.74,16.64-3.4,1.89-1.39,3.58-1.78,5.07-1.18.63-.62.9-.34.47.47l-.22,1.04c-8,2.7-10.86,6.83-10.38,15.34l2.75-5.51c3.97-7.11,6.28-3.03,2.43,2.43-.31,3.84.54,7.6,2.54,11.26.99,3.75.08,5.34-1.82,8.47l.52.51c-.45,3.71-3.47,7.49-6.06,10.25.49,1.29-.58,2.36-1.86,1.86.08-1.24.02-1.06-.93-.47,1.37-2.28,4.87-8.95,4.64-11.36s-2.48-5.49-2.68-8.11c-.12-1.54.69-3.13.37-4.76-1.81,1.09-1.66,5.2-2.56,6.52-.35.51-.61.65-1.17.25-1.38-1-1.72-9.52-1.99-11.53-.14-1.06-1.22-3.58-1.19-3.78.18-1.24,5.34-5.64,5.05-5.9l-11.18,7.45c-2.98,3.77-9.17-3.83-7.96-6.42,1.41-1.34,2.76-2.71,3.77-4.29.5-.39,1.06-1.34,1.86-1.86.06-.31.13-.62.26-.9.86-1.88,10.13-4.84,12.62-5.29l1.56.6c.42-.09,1.27.26,1.4-.23-1.06-1.06-2.33-2.13-3.57-2.95-.52-.34-3.53-2.25-3.74-2.31-.94-.27-2.3.29-2.93-.56,2.15-.39,4.24-.27,6.06-.93h.47Z"/>
      <path class="st29" d="M149.96,94.84c.23,1.44.81,2.92.47,4.66,1.95-1.24,5.25-.66,7.68-.46,38.81,3.08,85.85,31.86,68.81,76.72l-7.54,12.73c-.25-.2-.69-.27-.93-.47-2.04-.78-5.2-2.33-5.13-4.66-1.77.1-4.36-1.95-4.19-3.73v-1.84c21.78-39.4-23.58-68.07-58.97-67.58l-1.6-.93c-1.24-.07-1.19-.57,0-.93.26-3.78.73-7.5,1.4-11.18,0-.78,0-1.55,0-2.33Z"/>
      <path class="st21" d="M85.19,121.86l.05,1.45c-15.77,14.91-21.45,37.14-10.3,56.32.99.75-3.31,4.92-3.63,4.98l-1.03-.32c-.46-.5-1.25-.56-1.81-1.22-11.76-13.93-8.29-42.71,3.69-55.84l8.84-9.56c.75,1.44,2.41,4.43,4.19,4.19Z"/>
      <path class="st140" d="M135.52,231.35c5.84.73,11.72,1.19,17.65,1.39l1.46.94c-2.76.83-5.58,1.87-8.38,2.57-14.18,3.49-28.24.95-41.02-6.05-5.07-2.78-9.73-6.64-14.89-9.34-6.27-3.28-13.21-5.68-19.55-8.87-2.43-2.47.07-2.83-3.76-3-.41-.13-.4-.29,0-.47l1.66-.84c10.86.45,21.53,2.25,31.31,7.19,10.86,6.45,22.21,11.5,34.06,15.16l1.47,1.31Z"/>
      <path class="st8" d="M72.61,198.27c1.27.8,2.77.66,4.19.47l1.5-.74c4.25.6,8.38,1.72,12.43,3.13l.99,1.33c.33-.14.67-.25,1.01-.29,1.87-.22,12.8,5.26,15.16,6.66l1.07,1.55c.38-.08.76-.13,1.12-.08,2.29.31,11.83,5.03,14.63,6.44l1.49,1.57c10.21,4.04,20.8,7.15,31.79,9.32,2.53.75,9.13,2.98,5.02,5.59-3.02.36-5.31.47-8.39.47-7.27-.01-12.16-.72-19.11-2.33l.32-1.01,6.08.48c-10.66-4.76-21.08-10.22-31.28-16.37-11.77-6.57-23.09-12.13-36.54-12.64-3.87-.15-5.91.15-8.15,3.26-4.51,2.07-4.45,2.91.18,2.51l.89.95v.47c-1.95-.08-3.1.3-4.66.47-.51,1.38-2.14,1.2-2.8,0-5.18-.35-3.45-3.06-.54-5.78-.02-1.95,1.5-2.98,3.19-3.57l6.66-1.84c1.21-1.16,2.61-1.57,3.73,0Z"/>
      <path class="st7" d="M73.54,217.37c15.53,2,23.19,10.24,36.35,16.31,3.77,2.93-.04,3-2.8,2.33-13-3.14-26.14-7.87-38.53-12.96-2.29-.94-7.46-2.96-7.6-5.68,1.22-1.55,4.51-1.43,6.52-1.34s4.35.26,6.06,1.34Z"/>
      <path class="st144" d="M217.99,224.36c.09-.42.24-.4.47,0l-3.26.47c.69,1.61,3.74.21,3.27,2.55-.09.43-3.04.94-3.27,2.1-11.54-.05-17.38-1-28.89,2.33-1.15.33-2.55.46-3.73.93l-.29-.97,4.95-4.62c1.08-1.79,5.22-3.08,6.99-1.86.25-.28.52-.55.82-.76,1.96-1.4,17.56-1.22,21.13-1.05l1.82.88Z"/>
      <path class="st35" d="M62.36,209.45c.46,2.76,2.81,4.72,5.33,5.62,1.95.7,4.8.26,5.85,2.3-4.7-.6-7.95-.47-12.58,0-2.33.24-4.7.45-6.99.93-.42-1.02-1.62-.89-2.35-1.61-.17-.17-2.59-3.66-2.77-3.98-.42-.13-.41-.28,0-.47,2.37-2.14,7.51-3.59,10.72-2.8.85-.13,1.91.09,2.8,0Z"/>
      <path class="st153" d="M187.24,227.16c-.08.81-.4,1.49-.92,2.11-.32.39-3.32,3.17-3.74,3.49-1.55,1.16-13.33,5.36-15.14,5.35-2.96-.02,1.27-3.18,1.94-4.35.5-.87.42-1.09.62-1.93.67-.61,1.38-1.21,2.25-1.5,4.6-1.55,10.31-3.31,14.99-3.16Z"/>
      <path class="st93" d="M132.25,220.17c4.5.56,8.98,1.42,13.44,2.58l1.47,1.15c7.71,1.04,15.34,2.73,22.85,4.81,1.83.97,1.85,2.31-.01,3.11-2.55.59-4.29,1.08-6.99,1.4,1.38-2.42-.77-2.97-2.93-3.83-7.18-2.85-14.3-3.6-21.66-5.83-3.96-1.2-8.96-2.83-12.23-5.25,1.94-.77,4.95.07,6.06,1.86Z"/>
      <path class="st140" d="M122.93,238.8c-5.25.38-10.77-1.57-15.84-2.8,2.49.05,4.7.43,2.8-2.33,4.24,1.96,8.66,3.53,13.05,5.12Z"/>
      <path class="st52" d="M71.68,75.74c1.44,2.04-3.57,3.82-3.19,5.76.09.46,3.57,4.68,4.33,5,1.25.53,1.76.45,3.06-.04-6.12,6.54-14.62,7.48-16.68,17.57-.31,1.51.17,1.05,1.31,1.07-.73.84-.94,1.14-1.86,1.86-.67.71-1.11.47-1.47-.39-2.66-8.03-1.54-19.41,3.17-26.51.93-1.41,3.35-4.66,4.83-2.92,1.14.13,1.08,2.73,2.09,2.33.61-.24,2.45-2.6,3.27-3.27.41-.34,1-.33,1.16-.45Z"/>
      <path class="st52" d="M65.62,99.5c-.68,1.4-2.31,2.24-3.26,3.26.23-1.7,2.19-2.63,3.26-3.73v.47Z"/>
      <path class="st105" d="M139.24,55.24c3.14.29,9.82,2.28,11.41,5.13.2.36.55,1.23.01,1.39-3.24-2.47-9.44-5.21-13.52-4.66-2.6.35.83,1.16,1.03,1.29,3.13,1.99,2.14,4.54,4.02,6.47,1.13,1.16,6.79,4.07,8.7,5.28l-.61.45-13.4-4.06c-.94-.53-1.81-1.15-2.63-1.85-8.15-6.94-4.27-9.64,4.53-8.98-.57-.06-.41-.21.47-.47Z"/>
      <path class="st25" d="M131.79,55.24c2.24-.03,4.79-.16,6.99,0,.15.01.31-.01.47,0,.26,1.5-.76.79-1.63.92-1.21.18-7.05.83-7.23,1.65,3.89,9,11.95,10.19,20.5,12.34,4.1,2.6,8.2,3.92,10.72,8.39-.58.57-.68.08-.93,0-6.61-5.48-14.78-8.67-23.21-10.08l-1.02-1.1c-2.22-1.14-4.89-1.58-6.96-3.06-.58-.42-4.14-4.35-4.21-4.66-.34-1.49,4.1-1.43,3.71-3.46l-9.32.46c-.26-.88.35-.77.46-.93,1.73.77,3.57-.5,5.36-.5,2.09,0,4.27.06,6.29.04Z"/>
      <path class="st156" d="M214.73,208.05c1.35.04,5.37.31,6.65.57,1.7.35,4.55,2.3,6.38,2.92.02,2.08-10.77,2.17-12.1,3.26l2.33.23.06,1.05c-4.47.23-9,.34-13.58.35-.11.24-.24.47-.42.64-.55.51-14.18,2.56-14.83,2.19-.22-.12-.41-.3-.59-.5-2.23.1-.55-1.84,1-2.25,3.69-.35,3.34-1.71-1.03-4.07l.03-1.13,1.17-1.18c3.94-.76,7.9-1.3,11.88-1.62l.75-1.01c4.12-.17,8.22.01,12.29.54Z"/>
      <path class="st6" d="M235.7,201.07c-4.96,4.73-11.42,6.4-18.17,6.99-3.5-.1-6.9-.31-10.21-.64.55-1.09.55-2.08.01-2.97l.41-.59,1.47-1.08c5.82-.73,11.97-1.57,16.79-4.92l1.78.41c1.91,1.21,5.68,3.19,7.92,2.8Z"/>
      <path class="st158" d="M199.82,204.33c2.34-1.42,5.43-1.62,7.92-.47.13.63,1.86,1.89,1.85,2.1,0,.52-1.9.39-1.39,1.63,2.98.29,6.49-.6,9.32.47-.92.08-1.87-.06-2.8,0-3.66-.12-9.43.08-13.05.47-6.96.98-13.49,1.53-20.59.1l-.84-1.03c-.42-2.18.59-3.24,2.33-3.73,5.4-1.1,11.9-.9,17.24.47Z"/>
      <path class="st4" d="M231.97,213.18c.38,0,4.59.46,4.82.54.65.22.8,1.26,1.55,1.71,1.32.77,3.31-.16,2.48,2.55-.44,1.45-8.12,3.57-9.79,4.06-.24-1.21-1.03-1.94-2.37-2.2-2.72-2.36-6.32-2.88-10.79-1.56-4.31-.06-9.6-.31-13.41-1.84,3.9-1.01,8.45-.56,12.39-.91.61-.05,1.04-.48,1.13-.48,4.1-.42,10.49-1.82,13.98-1.86Z"/>
      <path class="st2" d="M204.48,216.44c4.05-.14,8.44.86,12.35.93,2.66.05,6.39-1.02,9.31-.46.98.19,1.95,1.5,3.01,2.12,1.74,1.01,3.32,0,1.89,3-4.7,1.38-7.51,2.09-12.58,2.33-.15,0-.31,0-.47,0-2.48-2.01-5.5-3.24-9.07-3.7l-2.71-1.84c-6.34.61-12.65,1.53-18.94,2.77-1.83.32-3.09,0-3.77-.95-.09-1.51,4.04-3,5.13-1.86,4.42-1.05,11.34-2.17,15.84-2.33Z"/>
      <path class="st143" d="M83.79,45.45c.77.11,1.9,1.27,2.8,1.63,1.61.66,6.29,2.07,6.99,3.73.34.82-.29.81-.97.5-1.19-.54-2.14-1.56-3.58-2.05-1.75-.6-4.28-.56-6.16-1.48,1.96,5.81,6.51,9.57,12.37,11.15.72.19,4.25,1.43,3.93-.44.67,1,1.86,1.86,1.86,3.26-4.36,1.55-8.7-.95-12.58-2.79-2.14-1.01-4.43-2.76-6.52-3.73l-5.92-6.09c-.62-.33-1.31-.43-2-.44,2.7-1.52,6.59-3.73,9.79-3.26Z"/>
      <path class="st67" d="M65.15,77.13c-4.48,1.07-6.82,9.33-7.79,13.41-1.48,6.23-.82,8.84-.15,14.8.12,1.06.15,1.61,1.42,1.61-.28.22-.35,1.12-1.16.93-4.19-8.06-2.87-18.89.69-27.02,2.44-5.59,5.31-8.67,9.79-12.58-.06,2.42-3.57,6.63-2.8,8.85Z"/>
      <path class="st116" d="M73.54,73.87c-1.47-6.06,4.76-9.95,10.28-8.65.96.23,4.11,1.8,4.16,3.06-4.91,1.04-10.23,2.82-14.45,5.59Z"/>
      <path class="st113" d="M60.96,198.74c1.11,1.16-.32,1.9-1.56,2.34-4.39,1.23-12.22,4.42-9.99,10.19l-.57.99c.06.12-.07.35,0,.47-2.43.26-8.1,3.94-8.85-.25-.94-5.29,4.15-8.14,7.45-10.93,1.86-.62,4.19-1.45,6.06-1.86,1.85-1.43,5.46-2.46,7.46-.93Z"/>
      <path class="st147" d="M114.55,59.9h6.52c-.3,1.09-3.2,1.91-2.32,3.24.27.4,6.9,2.66,7.79,3.64,3.18.26,6.76.14,9.91.58,8.33,1.17,18.69,4.63,24.23,11.18-2.42-.82-4.5-2.82-6.99-3.96-4.41-2.01-11.55-4.14-16.31-3.03-1.08-.54-2.19-.91-3.26-1.4-.97.86-4.98-.5-5.13-1.86-1.44,1.04-5.79.34-6.99-.93l-.68.93c-4.3-.49-6.03.49-5.18,2.95l-1.41.85c-8.26-2.36-1.8,4.27.98,6.57l3.03,4.07,1.08-.09c3.71,4.23,7.7,8.15,11.97,11.74.67.08,1.38.18,1.94.59,2.44,1.82,5.82,4.68,6.92,7.33.94.49,1.32,1.49.3,2.05-1.88,1.02-19.99-13.05-22.44-16.24l-1.62-.71c-.67.61-.93.34-.47-.47-1.61.52-1.89-.37-1.86-1.86-.44.13-.6-.03-.47-.47-.51,0-1.03-.09-1.44-.42-1.73-1.42-4.35-8.33-5.09-10.76-1.25.52-1.72-.38-.93-1.4l-1.35-.24c-1.84.46-7.27.63-4.25-1.62.16-.58.56-.7,1.1-.7,3.73,1.01,5.04.77,7.87-1.77-.57-.51-.91-1.07-.96-1.86-.08-1.21,3.95-6.74,5.51-5.92Z"/>
      <path class="st51" d="M134.12,70.15c.49.93.46,2.05.99,2.97,1.72,2.96,5.08,6.37,7.13,9.65,3.61,5.78,7.66,12.53,6.8,19.53l.93-5.12c0,4.62.07,6.81-1.4,11.18l-1.07-.19c-.17-4.38-1.29-7.44-3.74-11.14.37-.38.31-.79.16-1.24l-.61-.32c-2.68-7.11-6.66-13.08-11.97-18.31-.9-.73-1.09-.97-.15-1.62l-2.74-2.93c-1.29-1.41-1.94-4.37.56-4.3,2.58.58,2.92.86,5.13,1.86Z"/>
      <path class="st131" d="M88.92,59.9c2.81,1.35,6.89,4.07,9.32,6.06.64.53,1.48,2.16,2.34,2.57,4.26,2,3.89-8.69,4.65-9.56,1.2-1.37,1.47,4.23,3.49,3.75,1.6-.38,1.3-2.45,2.24-3.14.81-.6,3.32-.61,4.52-1.07-.34.42-.58,1.02-.93,1.4-1.03,1.12-4.47,4.6-4.59,5.9-.1,1.02,2,1.95,2.26,2.94-2.09-.96-4.5,2.05-5.41,2.22s-4.56-.63-5.77-.82c-.86.99-2.26.68-4.19-.93-.11.93-.57.89-.93,0-.79-1.06-2.76-.06-3.63-.57-.12-.07-.97-1.6-1.74-2.22-1.99-1.61-5.59-4.04-8.14-3.74.43-1.4,3.6.15,3.72,0,.15-.58-.35-.99-.46-1.4-.01-.05.6-.25-.18-.92-.4-.34-3.95-1.84-1.91-2.34.89-.22,4.28,1.35,5.35,1.86Z"/>
      <path class="st55" d="M81.93,190.82l-.61,1.01c-4.21.5-7.95,2-11.28,4.68.45.43.59.94.32,1.52l-6.14.25c-.22,1.31-2.82,1.83-3.26.47-2.49.25-5.01.39-7.46.93-.11-1.32.82-1.13,1.5-1.53,2.16-1.27,4.98-2.55,6.42-4.53.91-.28,2.51-1.21,3.26-1.4-.1-.86.95-1.38,1.4-.47,2.45-1.6,4.47-1.75,6.06-.47,2.63-.85,5.57-1.7,8.58-1.47l1.2,1.01Z"/>
      <path class="st20" d="M213.33,183.36c1.89,1.52,3.72,3.52,5.13,4.66v.47c-.9.68-3.44.24-3.73-.93-4.01,1.66-7.93,3.54-11.77,5.66-4.73,1.7-10.5-.04-15.17-1.48-9.51,1.26-6.3-9.66,1.33-10.19,3.31,0,5.94-.79,7.9-2.37-1.34-.33-1.19-1.34,0-1.86-.4-1.44.6-1.47,1.83-1.05,4.75,2.66,9.57,5.03,14.48,7.11Z"/>
      <path class="st157" d="M183.51,180.57l-.19,1.17c-3.04,1.04-13.23,5.12-14.42,7.21-.07.13,1.51,2.16,1.81,2.38,9.5,6.98,34.04,8,41.79-2.92l2.22-.86c1.45.03,2.49.04,3.73.93.32.78,2.01,4.3,2.33,4.66l-.51,1.25c-2.55,1.85-7.07,4.47-10.02,5.45-1.96.65-11.88,2.13-13.35,1.54-.39-.16-.67-.37-.81-.79-.25.25-.52.48-.81.65-2.32,1.39-14.31-.68-17.56-1.47-5.1-1.25-26.65-8.52-12.53-13.84,4.73-1.53,9.39-3.32,13.99-5.37,1.74-.81,3.19-.82,4.33,0Z"/>
      <path class="st61" d="M220.79,193.15c.29.32,6.34,4.71,6.99,5.12-1.87.23-3.66,2.09-5.11,2.58-5.04,1.71-9.64,2.53-14.93,3.01-2.65.24-5.25.41-7.92.47-3.51-.71-4.75-1.95-3.73-3.73,4.34-.21,11.52-.53,15.33-2.15,3.22-1.37,6.12-3.97,9.37-5.31Z"/>
      <path class="st45" d="M100.57,111.15c1.09,1.1,1.13,4.58,0,5.59l-.56,1.02c-19.61,11.39-33.68,37.01-20.74,58.03l-.13,1.05c.58,1.46-2.91,3.48-4.19,2.8-1.55-.15-2.3-2.63-2.88-3.88-7.64-16.64-3.68-34.2,7.76-47.84,1.87-2.23,3.71-3.81,5.36-6.05.84-1.13,1.7-2.92,2.33-3.73.44-.56,1.29-1.38,1.86-1.86,1.5-1.92,7.28-6.81,9.5-6.82,1.46-.01,1.52.33,1.68,1.7Z"/>
      <path class="st11" d="M101.96,164.26c.53.17.39.51,0,.93l-2.63,2.27c-11.23,6.33-21.88,14.1-30.69,23.43l-2.56.85c-.27.06-.85.33-1.4.47-1.91.45.4-1.54.69-1.86,1.62-1.79,3.5-3.37,5.16-5.13.2-.27-.07-.74-.25-.93,1.51-1.35,3.52-3.73,4.66-4.66,1.02-.84,3.01-1.89,4.19-2.8-.05-1.66,1.68-2.89,3.26-2.33.18-1.87,2.87-3.85,4.66-3.26l.78-1.55c2.07-1.41,11.44-6.29,13.25-5.81.31.08.6.22.88.38Z"/>
      <path class="st65" d="M146.23,109.28c.46-.96,1.92-.98,2.33,0,23.76-.33,54.77,11.21,64.39,34.63,5.13,12.49,2.9,24.41-3.81,35.73-3.12-.57-6.71-2.89-8.39-5.59-.91-.72-1.31-1.51-1.2-2.36,17.22-46.16-51.58-64.36-83.22-45.06l-1.32-.11c-1.54-.74-2.85-5.89-1.4-6.99-1.65-1.25-1.46-6.07,0-7.45.76.23,1.35.97,1.77,2.21,9.31-3.58,20.11-7.06,29.92-5.47.43-.83.8-.37.93.47Z"/>
      <path class="st108" d="M124.33,73.87c1.07-.33,3.16.88,3.73,1.86,6.28,3.07,11.6,10.15,13.51,16.77l-1.46-.52c-.48-2.37-13.04-16.96-14.27-15.1-.88,1.32,1.64,5.64,2.52,6.85,4.17,5.74,9.73,11.14,14.84,16-1.33-1.91-1.41-3.23-.22-3.97.65.39.96.39.93,0,1.07,2.23,3.27,4.76,3.88,7.07.52,1.95-.04,3.73.78,5.51-.08.23.05.64,0,.93-.92.01-.51.64-2.33,0-1.37-2.39-3.15-4.38-5.35-5.96l-.24-1.03c-2.93-2.59-6.11-5.15-8.85-7.92-3.82-3.22-8.26-6.98-10.69-11.4-1.08-1.96-3.81-9.4-2.36-10.86.21-.21,4.91,1.48,5.6,1.76Z"/>
      <path class="st154" d="M200.75,174.04c2.87,1.76,5.7,3.56,8.39,5.59,1.46,1.1,2.84,2.64,4.19,3.73-.8.57-1.39.55-2.3.22-3.55-1.28-8.22-4.76-11.99-6.23-.77-.3-1.22-.71-2.02-.05l-1.02-.16c-1.02-2.23-2.24-4.35-3.68-6.36l.5-.94c2.38-1.21,6.78,1.86,7.92,4.19Z"/>
      <path class="st76" d="M67.02,208.52c-2.02-.11-4.41.43-6.05-1.16,1.07-1.63,3.02-1.93,4.42-3.03,1.96-1.54,1.35-2.76,4.7-3.22,6.84-.94,16.41,1.11,22.8,3.68,14.87,5.97,30.81,16.49,45.32,23.64.92.45,5.04,1.8,5.19,2.03.09.15.08,1.31.03,1.36-.31.32-6.72-.95-7.92-.46-13.86-3.21-20.94-7.99-33.07-14.22-12.95-6.66-21.01-7.81-35.42-8.61Z"/>
      <path class="st49" d="M90.32,191.75c1.86-.33,3.98.14,5.59.93.66-1.26,2.27-.32,2.33.93.81.2,1.59.11,2.36-.24,8.05,2.94,15.87,6.42,23.46,10.43l.75.99c1.69-.73,4.55.54,5.13,2.33-.05,1.99-2.12,1.69-3.6,1.11-2.54-1.39-5.31-2.41-8.09-3.26-5.67-1.74-10.42-3.07-15.71.26-3.25-.81-6.43-1.87-9.53-3.18l-1.27.4c-5.25-1.86-9.34-3.03-14.91-3.73-1.39.2-2.98.37-4.19-.47-1.23-.06-2.49,0-3.73,0-1.93,1.11-3.48,1.11-4.66,0l5.59-.47c-.24-.76-1.29-.99-.72-1.87.18-.29,5.19-3.24,5.82-3.51,1.46-.61,5.48-1.49,7.01-1.61l.68-.96c1.15-.31,7.45.36,7.71,1.89Z"/>
      <path class="st151" d="M129.92,207.12l2.08-.23c8.79,3.3,18.04,4.92,27.3,6.17l.91.59,3.07-.44c.73-.6.85-.04.66.91-1.49.22-.7.29,2.36.22,1.75.19,1.2,1.18-.43,1.68l-4.52-.09c-13.9,2.19-27.05-1.36-40.29-4.94,1.77,3.54-1.09,3.44-4.01,2.33-2.72-1.48-5.42-2.46-8.1-2.92-5.99-2.87-10.83-5.65-17.24-7.92.07-1.08.25-1.42,1.41-1.21,2.26.39,7.69,3.16,9.56,3.06.78-.04,1.32-1.06,2.31-1.37,6.57-2.11,12.6.97,18.86,3.03,1.76.58,3.73,2.81,6.06,1.16Z"/>
      <path class="st43" d="M108.95,210.38c-.18-1.49.42-.84,1.3-.6,3.56.97,6.81,3.07,10.58,3.4.45-1.19-3.43-3.44-.51-3.23,4.03.3,9.66,2.59,13.79,3.46,10.66,2.25,15.51,2.71,26.33,1.62,2.01-.2,4.25.16,6.29,0,.11-.81-1.06-.44-1.62-.46-2.25-.09-4.52.07-6.76,0-.11-.81,1.06-.44,1.62-.46,1.31-.06,2.65,0,3.97,0,.96-1.4,4.58-1.32,5.59,0,.19.31.45.78.28.98-2.3,2.61-5.82,4.23-9.06,5.28-1.36,2.32-3.81,3.26-7.35,2.82-7.13-.6-14.18-1.61-21.15-3.02-2.04-.62-4.04-1.12-6.06-1.86-6.2-2.28-11.37-5.11-17.24-7.92Z"/>
      <path class="st93" d="M64.22,198.27c1.53-.09,3.12,0,4.66,0-1.62,2.26-7.28,1.96-8.72,4.32-.27.45-.09,1.3-.38,1.69-.74,1-2.34,1.9-2.54,3.07-.36,2.14,1.51.32,2.33,2.09-3.57.56-7.16,2.07-10.72,2.8-2.99-5.86,2.94-9.22,7.6-11.27,1.6-.7,3.72-.56,4.51-2.25,1.07-.11,2-.4,3.26-.47Z"/>
      <path class="st93" d="M76.8,198.74c-1.23.62-3.55,1.04-4.19-.47,1.6.08,2.77.29,4.19.47Z"/>
      <path class="st48" d="M217.99,224.36c-8.14.33-15.59-.44-23.76.93-1.21-1.09-3.12-1.07-4.74-1.05-7.16.1-14.28.46-21.44,1-.67-.12-1.27-.42-1.78-.88-.41-.13-.4-.29,0-.47l.62-.64c5.39-.94,10.69-1.99,15.9-3.14l.72.52c1.23-.17,2.7.18,3.96,0,3.56-.52,16.59-3.14,19.05-2.68.39.07,1.76,1.44,2.76,1.85,2.9,1.18,8.43.8,8.71,4.57Z"/>
      <path class="st125" d="M166.27,224.36c8.08-.15,17.14-1.55,24.95-.95,1.17.09,3.57.01,3.01,1.88-2.41.4-4.66,1.27-6.99,1.86-5.8,1.48-11.44,3.33-17.24,4.66.2-.85,1.11-1.65-.32-2.25l-22.51-5.67c2.47-.71,5.15-.84,8.03-.39,3.84-.17,7.39.18,11.08.86Z"/>
      <path class="st79" d="M177.45,213.18c1.81-.18,2.53.29,2.16,1.4-1.27,1.81-1.31,2.96-.08,4.69.13,2.59-12.25,4.09-13.58,4.02l.32.61v.47c-6.28.12-12.89.3-19.11-.47-5.17-.64-9.98-2.23-14.91-3.73.6-.8,2.12-.53,2.98-.42,7.77,1.02,13.37,3.32,21.9,2.22,3.07-.4,1.64-1.32,2.88-2.24,1.03-.77,4.02-1.32,5.29-2.17l4.23-3.46c1.66-1.68,5.8-1.84,7.92-.93Z"/>
      <path class="st46" d="M106.62,72.01c.33.32.62.97.93,1.4.43.77.43,1.23,0,1.4-7.71.72-11.36,9.72-5.83,15.56-.45,3.32.2,2.54,1.95-2.33l2.68-9.3,1.21-.67c1.62,1.23.72,5.32.2,7.27-.29,1.08-3.01,8.95-3.31,9.34-.61-.01-.97.35-1.08,1.1-.14.43-.29.42-.47,0-1.36,3.53-3.67,6.67-6.01,9.77l-1.45.48-1.4.7c-.19-2.1,1.7-3.96,2.13-5.79.71-3.03-1.46-5.48-2.25-8.53-.58-2.23-1.2-4.17-.7-6.54.39-1.87,2.6-3.73,2.22-5.93-3.23,3.23-4.52,7.78-6.75,11.65-.38-.23-.62-1.22-.61-1.61.02-1.87.22-5.1.44-6.95s1.38-4.85,2.72-6.13c.91-.88,7.28-4.21,8.41-4.4,0-.92.82-1.06,2.43-.4,1.6-.37,3.12-.39,4.56-.06Z"/>
      <path class="st46" d="M95.91,69.21c.31.02.63-.03.93,0,2.2.68,2.97,1.61,2.33,2.8-5.25,1.59-10.07,5.83-15.27,7.32-6.53,1.87-10.46-3.48-4.31-7.1,4.82-2.85,10.86-3.33,16.32-3.01Z"/>
      <path class="st30" d="M102.9,95.77c1.07,1.92.79,6.48-.93,7.92.77.61.33,2.34-.47,2.8-.01,1.46-.09,2.93-.28,4.38l-.65.28c-.64-.4-.92-1.04-1.83-.72-2.9,1.02-6.48,4.49-9.35,5.84,1.69-3.56,3.9-6.97,6.06-10.25,2.33-3.55,5.24-6.79,7-10.72.31-.05.4.47.45.47Z"/>
      <path class="st122" d="M101.03,70.15c0,1.55-.52,1.26.95,1.18,1.67-.1,3.29-.62,4.64.69-1.35-.07-2.76.84-4,.89-.98.04-1.96-.6-2.99-.43-.16-.14-.37-.28-.47-.47-.79-1.45-1.3-1.57-2.33-2.8,1.72.15,2.73.7,4.19.93Z"/>
      <path class="st95" d="M153.22,182.9c.62-.79,4.06.33,3.73,1.4l-.76.87c-2.96-.27-5.97-.49-8.96-.38-9.18-.15-4.71,6.44.08,9.87,9.3,6.65,20.46,10.23,31.7,11.86l1.23,1.09c4.75.52,11.88,1.55,16.48,1.25,1.25-.08,3.45-1.2,4.96-.32-4.43.47-8.73,2.02-13.05,2.8-2.47,1.85-5.92,2.34-8.85,1.4-7.99.23-16.15-2.72-23.55-5.66-8.08-3.22-15.36-7.29-22.64-11.79-3.14-1.94-9.19-9.22-6.61-12.92,3.54-5.07,20.97-1.04,26.23.55Z"/>
      <path class="st70" d="M188.64,211.32l6.06,4.42c-1.71.62-3.48,1.07-5.15,1.84-.22.1-1.93.85-.91,1.19-1.34.32-3.65,1.43-5.13,1.86-5.81.83-11.17,3.19-17.24,3.26-.96.01-3.73.57-3.26-.93,3.74-.45,12.72-.93,15.39-3.49,1.17-1.12-.67-.52-.89-1.43-.06-.26.42-2.11.55-2.64.33-1.29,1.97-1.3-.6-2.23.38-.51,1.16-.66,2.33-.47,2.94-.47,5.92-.87,8.85-1.4Z"/>
      <path class="st139" d="M188.64,179.17c.15-.51.62-.51,1.4,0,.34-1.51,2.9-.5,2.33.93-1.9,1.47-6.74,1.57-8.85.47-5.41.74-8.65,2.87-13.51,4.89-2.18.91-10.87,2.16-8.34,6,.32.48,6.32,3.89,7.31,4.34,8.12,3.74,18.34,5.21,27.12,4.79.19,2.18,2.73,2.18,3.73,3.73-5.85.11-11.43-.07-17.24-.47l-1.46.83c-8.88-.6-18.29-3.09-25.39-8.44-6.3-4.75-9.5-10.04,1.38-11.03h5.91c.27-1.21,1.52-1.52,3.73-.92,1.91-2.43,6.63-4.2,9.76-5.01,3.83-1,8.33-1.28,12.14-.11Z"/>
      <path class="st75" d="M156.95,184.29c1.11-.5,2.5-.35,4.19.47.68-1.37,1.94-1.07,1.86.47-2.95.79-3.55.68-6.7.99-13.34,1.33,1.48,10.88,6.38,13.07,7.01,3.13,12.35,4.07,19.89,4.58.35,1.03-.85.94-1.14,1.42-.46.77.01,1.91-1.19,2.31-11.36-1.24-27.05-6.22-35.65-13.98-1.93-1.74-5.48-6.38-2.56-8.62,2.47-1.9,11.61-1.01,14.91-.7Z"/>
      <path class="st119" d="M114.55,85.05l.69,1.26c-3.71,6.55-6.45,13.54-8.24,20.98-.67,1.49-2.61,5.46-4.1,3.38-.91-2.17-1.14-4.2-.7-6.1l-.23-.88c.41-2.51.42-5.37.93-7.92.14.01.39.03.47,0,.47-2.01.97-2.31,2.29-.58,1.6-2.46,2.96-5.08,4.07-7.85.82-1.21,2.98-3.68,4.36-2.74.12.16.33.29.47.47Z"/>
      <path class="st59" d="M114.08,84.59c-.94.86-2.42,1.68-3.19,2.63-1.1,1.38-3.66,9.29-5.37,8.98-.53-.09-1.07-1.22-1.46-1.36-.35-.13-.24.73-.7.93.27-3.85,2.74-7.24,3.59-11.09.54-2.46.55-4.14.6-6.62-1.15-1.14-1.16-2.12,0-3.26v-1.4c2.46,3.35,4.01,7.83,6.52,11.18Z"/>
      <path class="st101" d="M116.41,86.92c-.52,1.87-1.12,3.91-1.8,6.12l-.99.4c-.98,1.09-.56-.79-.43.01.18,1.09.14,3.39-.97,3.71-.59,1.77-1.38,3.48-2.38,5.14l.73,1.82c-1.37,1.93-2.53,3.96-3.48,6.08l-1.17,4.82c.33,2.03-.06,3.84-1.16,5.43-.84.7-1.11.46-1.75-.28-1.06-1.23-.55-7.96-.11-9.51.97,0,1.3-.54,1.79-1.24,3.5-4.95,3.13-10.79,5.73-15.69.89-1.68,1.03-2.43,1.56-3.52.8-1.63,2.43-3.24,2.56-5.17.34.44,1.26,1.15,1.86,1.86Z"/>
      <path class="st66" d="M122,67.35l.86.71c.17,2.77,2.08,4.81,5.72,6.13l-.05,1.08c.62.65.36.89-.47.47-1.26-.8-2.31-1.35-3.73-1.86-1.36-.95-7.77-2.1-8.26-1.1.2,3.04,1.22,5.98,3.06,8.81l-.4,1.13c-1.75-1.85-8.28-7.1-8.77-9.21-1.19-5.13,4.69-1.74,5.51-2.44-2.19-4.06,3.62-3.71,6.53-3.72Z"/>
      <path class="st50" d="M124.33,73.87c-1.3-.47-3.67-.71-5.12-1.4.22,2.66.6,5.07,1.51,7.57,1.65,4.54,7.56,10.77,11.07,14.32-1.41-.57-3.06-2.01-4.2-3.02-2.47-2.19-7.15-6.07-8.85-8.63-1.16-1.75-3.68-7.11-3.74-9.11-.15-4.31,7.08-.95,9.34.26Z"/>
      <path class="st142" d="M116.88,87.38c.77-.6,1.26-.37,2.02.05,1.63.91,4.63,4.34,6.41,5.73,2.93,2.3,11.52,9.12,14.36,10.33,1.4.6.95-.34.98-1.21.12.11.78.1,1.17.45,1.63,1.48,5.08,4.2,4.43,6.54-.3-.11-.65-.31-.93-.47l-1.95-.19c-3.29-2.66-6.89-4.82-10.64-6.81l-.45-1.38c-3.44-.52-7.47-3.34-8.85-6.52-2.59-.26-6.38-3.96-6.52-6.52Z"/>
      <path class="st114" d="M116.41,86.92c.14.17.32.3.47.47,2.2,2.51,4.03,4.38,6.52,6.52.06.36.1.9-.14,1.01-.78.34-8.23,2.51-8.76,2.5l-.89-.71c-.99-.29-.5-2.6,0-3.26.29-2.37.69-3.01,1.61-5.17.3-.7-.06-1.63,1.18-1.36Z"/>
      <path class="st16" d="M128.99,68.28c-2.61,2.83,2.29,5.04,3.25,7.23.4.91-1.33.52-.92,1.62-.94.04-2.38-1.01-2.8-1.86-3.36-2.26-7.26-2.78-6.52-7.92,2.71-.01,4.4.35,6.99.93Z"/>
      <path class="st103" d="M131.32,77.13c7.41,5.86,8.73,10.58,12.58,18.64.1,1.57-.39.97-.93,0-1.39.03-2.5-2.32-1.4-3.26-2.53-6.26-7.76-13.14-13.51-16.77l.47-.47c.94.63,1.85,1.12,2.8,1.86Z"/>
      <path class="st129" d="M101.96,165.19c.13-.41.29-.4.47,0,.4.15.4.3,0,.47.18,1.25-.03,1.33-.93.47-.75,3.03-9.23,13.15-11.57,13.5-.33.05-.67.04-1.01,0l-.41,1.46c-4.68,2.51-8.72,5.58-12.13,9.2-1.64.17-3.05.5-4.24.98-1.89.16-4.18.06-6.06.47-1.28-.71.86-.31,1.3-.56.15-.09.56-1.11,1-1.55,9.61-9.54,21.47-18.58,33.58-24.45Z"/>
      <path class="st64" d="M88.92,179.63l.98.77c1.39,5.31,5.03,9.32,10.92,12.04.47,1.31-.39,1.7-2.58,1.17-.85-.25-1.87-.82-2.33-.93-1.65-.82-3.74-1.24-5.59-.93-2.46-.41-5.96-1.11-8.39-.93-3.3-.29-6.56.19-9.79.47-1.42-1.8,2.25-.5,3.17-1.03.18-.1,1.82-2.43,2.67-3.15,3.41-2.88,7.71-4.95,10.94-7.47Z"/>
      <path class="st58" d="M214.73,187.55c-1.38.93-2.89,3.44-3.95,4.21-1.63,1.19-6.3,4.09-8.14,4.44-9.81,1.85-23.9,1.98-32.31-3.96-.52-.37-2.85-3.3-2.65-3.95,3.43-1.61,6.43-3.98,9.93-5.47,1.94-.83,4.1-1.13,5.9-2.25,3.2-.44,5.67-.39,8.85-.47.14-1.28,1.29-1.11,2.14-.41l2.06-.52c.13-.41.29-.4.47,0-.04.94-.02,1.11-1.28,1.75-4.08,2.09-7.45.33-11.73,4.1-1.83,1.62-1.45,5.02.92,6.04.99.43,1.91-.35,2.97-.26.75.07,1.37.72,2.02.82,2.2.35,8.93,1.71,10.57,1.49,1.78-.24,7.96-3.95,10.05-4.88,1.47-.65,2.62-.72,4.2-.69Z"/>
      <path class="st106" d="M192.83,169.85c1.22,1.95,3.66,5.39,4.19,7.45.1.4.02,1.35,0,1.86h-.47c-1.46.66-3.24,1.08-3.43-.91l-6-9.06c-.3-.68-.41-1.39-.35-2.14-.73-1.74-1.11-4.38,1.4-4.19,2.46,1.19,4.63,4.27,4.66,6.99Z"/>
      <path class="st86" d="M100.57,116.74c.23.13.44.27.58.47.23.33-.53,7.49-.68,7.96l-.84.89c-.83-.07-1.35-.8-1.56-2.17-14.89,11.24-23.98,30.96-15.52,48.85l-.17,1.78c-1.08.75-2.22,1.53-3.26,2.33-1.69-1.08-2.46-3.14-3.15-5-8.16-21.93,4.22-42.52,22.48-54.19.67-.43,1.28-.87,2.11-.91Z"/>
      <path class="st97" d="M102.43,165.19h-.47c-.01-.31.02-.62,0-.93l-1.05-1.82c-.98-10.2-1.64-20.33-1.99-30.39l.72-.88c-1.25-2.23-1.25-3.94,0-5.12-.5-3.33.68-6.12.93-9.32.15-1.84-.13-3.75,0-5.59s.75-3.23.93-4.66c1.01,4.03,1.4,8.32,1.19,12.86-.71,14.61-.32,28.93,1.18,42.94.2,1.78-.28,2.75-1.44,2.9Z"/>
      <path class="st121" d="M87.05,171.25c-2.71-1.95-3.24-7.04-3.51-10.38-.98-12,4.87-23.51,13.32-31.73,1.54-1.34,2.47-.66,2.78,2.04,1.15,3.28.64,14.33.93,18.83.31,4.73,1.16,9.52,1.4,14.24-5.06,1.51-10.4,4.24-14.91,6.99Z"/>
      <path class="st18" d="M99.64,126.05c.2,1.6-.14,3.48,0,5.12-.04-.12-1.1-2.16-1.62-1.86-11.45,10.9-17.48,26.59-10.96,41.93-1.56.95-3.13,2.19-4.66,3.26-9.84-19.12-.45-39.75,15.62-51.71.99-.23,1.53,2.53,1.62,3.26Z"/>
      <path class="st5" d="M200.75,174.04c-2.53-1.56-4.98-3.39-7.92-4.19-1.49-2.36-3.16-4.63-4.66-6.99-.11-.21-.2-.42-.2-.64,0-.66,7.49-3.71,8.58-2.63.35-1.51,1.11-2.98,1.86-4.19-.82-.42-1.59-1.15-2.31-2.2-1.46-.33-2.56-.84-3.28-1.53l-1.12-.6c-3.28-8.97-11.49-15.78-19.89-19.88-1.72-.84-5.31-2.36-6.95-1.42l-1.3-.12c-1.93-3.24-3.26-3.73-6.63-4.07.23,1-.73,2.58-1.86,2.33-1.05.71-1.5-.01-1.63-1.1-2.47-.42-13.81-.6-15.12.79-.05.66-.2,1.02-.96,1.24-.77.32-1.54-.03-2.3-1.06-1.32-.14-2.26-.57-2.82-1.27,0,1.23-.47,1.23-1.4.47.4,1.05-.69,2.58-1.86,2.33-3.43,1.45-7.08,3.01-10.41,4.93-.21,1.49-1.38,2.87-2.17,1.12-.4-.16-.4-.31,0-.47-1.17-1.01-1.56-2.78-1.17-5.32-1.32-.55-1.19-2.04-.23-3.07,2.43-2.17,5.66-3.47,8.75-4.53,17.14-5.86,38.14-5.17,54.6,2.44,16.19,7.48,28.99,22.48,24.11,41.32-.68,2.62-2.84,5.6-1.73,8.29Z"/>
      <path class="st155" d="M145.3,108.82c-1.99.95-4.5.31-6.7.53-7.87.78-17.21,3.08-24.29,6.46l-.7-3.72c-.9-.28-1.01-1.34-.35-3.18l-.12-1.48c-.42-.09-.4-.24,0-.47-1.29-.6-1.3-1.73,0-2.33l.34-1.03c.63-.51,14.28-3.32,15.85-3.48,1.1-.11,1.83-.13,2.92.31,2.11,1.39,4.74,2.62,6.95,4s4.03,3.24,6.1,4.39Z"/>
      <path class="st104" d="M113.61,119.53c.19,1.96,1.07,4.79,1.4,6.99.45,2.98.8,5.43,1.4,8.39-1.71,4.73-7.58-1.46-2.24-3.39-3.49.78-4.79-11.14-4.45-11.72.7-1.2,3.25-2.02,3.9-.26Z"/>
      <path class="st94" d="M113.61,112.08c.01,2.37-.22,5.17,0,7.45h-3.26c1.14,3.79-.23,9.1,3.96,11.18l.69-1.39c.06,2.69.68,3.47-2.32,3.73-.25,1.18.95,2.62,2.11,2.81.93.15.51-1.28,1.62-.95.03.15-.03.32,0,.47,1.52.43,2.54,4.01,1.4,5.12.31,2.76-2.49,1.88-3.98.69s-4-5.21-3.69-7c1.14-1.41,1.09-2.27-.13-3.67-.88-1.32-1.64-10.43-1.27-11.1,1.67-.15,1.89-1.13.66-2.94-.13-2.32,2.08-7.57,3.75-9.06.85,1.07.46,3.2.47,4.66Z"/>
      <path class="st91" d="M141.57,92.51c.46,1.13.97,2.02,1.4,3.26.12.36-.02,1.15.22,1.86.29.86,3.3,5.55,0,3.29-2.94-2.01-16.93-17.03-17.7-20.04-.51-1.98-.33-4.11-1.15-6.07,8.15,3.57,12.57,10.62,17.24,17.7Z"/>
      <path class="st141" d="M109.89,173.11c4.51-.16,8.94.53,13.36,1.3,2.72.47,16.73,3.32,17.19,4.07.08.13-.06.39-.27.69l-1.03.74c-6.17-1.2-12.44-2.36-18.75-1.84s-8.28,3.4-4.96,9.22,12.82,10.76,18.53,13.75c7.12,3.73,19.48,9.72,27.32,10.83,4.48.64,1.69,1.66-1.07,1.78-9.95-.28-20.99-3.03-30.29-6.52-1.74-.65-3.42-1.62-5.13-2.33l-.26-.82c-8.74-3.75-35.49-19.25-20.89-29.67,1.41-1.01,5.08-2.77,6.24-1.19Z"/>
      <path class="st72" d="M119.67,173.11l-.63.55c-3.05-.33-6.09-.65-9.16-.55-3.14.52-5.16,1.1-7.48,3.47-3.84,3.94-2.55,6.61.29,10.46,3.59,4.87,10.84,10.16,16.08,13.28,2.07,1.23,4.5,1.88,6.46,3.32,1.06.77-.03.66-.45,1.14-8.97-3.74-17.17-8.43-26.56-11.18l2.33-.23c-5.28-3.55-11.41-6.49-11.65-13.75,4.93-3.84,8.51-8.81,12.58-13.51l1.77,2.68c5.52.55,10.86,1.56,16.02,3.04l.38,1.27Z"/>
      <path class="st72" d="M90.32,191.75c1.69-1.31,4.01.45,5.85.45l-.26.49c-1.66-.42-3.86-.64-5.59-.93Z"/>
      <path class="st88" d="M140.18,179.17c.4-.25.78-.44,1.13-.39,1.55.24,11.87,2.95,12.11,3.53.06.14-.04.35-.19.59-4.92-.97-19.44-3.05-23.57-1.43-1.43.56-2.68,1.89-2.53,3.48.07.79,3.3,6.56,3.95,7.29.96,1.07,3.86,2.76,5.23,3.62,13.23,8.3,28.01,14.3,43.48,16.86-.69.11-1.38.34-2.33.47-2.49.34-5.44.8-7.92.93-2.04.11-3.59,0-5.59,0-.78-.85-2.55-.43-3.73-.47l3.26-.93c-2.93.39-5.1-.41-7.77-1.32-10.23-3.48-35.98-14.47-41.09-23.68-.4-.72-1.97-5.34-1.93-5.95.15-2.67,4.16-3.94,6.34-4.41,5.56-1.2,15.37.65,21.15,1.81Z"/>
      <path class="st47" d="M107.56,78.07c-2.08,6.02-2.67,12.9-7.22,17.7-.87-1.43.72-3.53.58-4.83-.11-.98-1.49-1.99-1.98-3.08-2.58-5.8,1.03-12.02,6.76-13.78,1.17-.36,1.28-.36,1.87.73,0,1.09.02,2.18,0,3.26Z"/>
      <path class="st123" d="M101.96,103.69c1.9-.1.43,1.92.47,3.03.04,1.23.42,2.49.47,3.96.04,1.12.13,2.39.19,3.66.12,2.28-1,4.44,1.67,6.12-.36,4.31.25,8.38,1.82,12.19-1.63,1.42-1.88,3.62-.75,6.61l-.6.31c.64,3.13.95,6.27.92,9.42,1.11,2.89,1.74,5.87,1.9,8.93l-.96.75c.52,1.33.2,5.16-.4,6.58s-.82,1.61-2.4,1.34c-.72,1.29-2.3.51-1.86-.93.07-.1-.06-.32,0-.47,1.11-2.93.06-5.06,0-7.69-.06-2.85-1.05-9.62-.94-11.14.17-2.27.36-2.1.26-4.86-.34-9.43-.1-17.68.23-27.31.09-2.61-.06-5.14-.49-7.71.13-1,.31-1.84.47-2.8Z"/>
      <path class="st23" d="M119.67,173.11c.27-.21.54-.39.84-.51.54-.21,9.46,2.23,11.11,2.73.25.07.45.3.63.58.56-.22,1.11-.37,1.61-.27,7.78,1.5,15.56,3.62,22.63,7.26.82-.49,1.76-.17,2.8.93,1.02-1.14,2.21-.56,1.86.93-1.53-.1-2.8-.34-4.19-.47-1.08-.92-2.38-1.13-3.73-1.4-.46-.85-1.32-.73-2.09-.94-3.61-.97-7.3-2.05-10.96-2.79-.46-.83-1.31-.76-2.08-.95-9.28-2.3-18.7-3.95-28.21-5.11,3.5-.58,6.22-.45,9.79,0Z"/>
      <path class="st14" d="M130.86,126.99l.86.03c7.16,10.6,14.4,22.62,20.11,34.91,3.27,2.88,5.59,6.92,6.52,11.18l1.19.18c1.73,4.26,4.13,7.77,7.2,10.53.39.13.38.29,0,.47-1.53.66-2.4.58-3.73.93-.57-.4-1.19-.42-1.86-.47-.5-.52-1.21-.71-1.86-.93l-2.41-1.68c-2.2-4.08-4.46-8.1-6.8-12.05l.36-1.17c-1.96-.57-4.17-3.55-3.73-5.59-2-.53-3.71-3.59-3.26-5.59-1.08-.12-1.65-.86-1.71-2.22l-.62-.11-.92-.51c.37-1.12-2.6-6.4-2.88-6.2-.77,4.24-2.02,8.32-3.73,12.25-.65,1.73-3.34,3.53-3.19.98-.62-1.81-.18-3.13,1.4-4.19.48-4.44,1.67-8.75,3.59-12.92l-4.07-6.12.48-.99c-2.44-.69-5.74-7.34-2.8-8.39.36-1.01.89-1.8,1.86-2.33Z"/>
      <path class="st120" d="M180.25,162.86c.67-.1.92.24,1.04.81,3.81-1.67,5.19-.53,5.48,3.38,2.41,3.43,4.95,7.23,7.18,10.78.25.4.22,1.22.31,1.29.42.36,1.75-.55,2.29.04-.59,1.46-2.79.9-4.19.93-.5-.41-1.74-.86-2.33-.93-2.63-.7-3.88-1.94-3.73-3.73-.89-.11-1.55-.62-.93-1.4-1.61-.75-2.08-1.53-1.4-2.33-1.8-1.4-3.27-3.25-4.4-5.56-2.45.74-4.87,1.03-7.24.9-.25,1.47-1.7,1.94-2.8.93-2.14-.04-1.08-1.81,0-2.8-.01-1.43,2.4-2.63,3.26-1.4.42-1.47,4.05-1.82,4.66-.47,1.31-1.35,2.24-1.5,2.8-.47Z"/>
      <path class="st124" d="M164.87,169.38h1.45c5.54,2.18,11.27,4.07,17.19,5.59.57-.71,1.5-.55,2.8.47,1.07,1.42,2.35,2.62,3.73,3.73-.45-.05-.94.05-1.4,0-6.46-1.74-14.51-.12-20.34,2.94l-1.09-.14c-1.26.06-1.35-.54-.47-1.4-.32-1.87.81-3.16,3.38-3.87l4.42-1.34c-3.33-1.37-6.7-2.65-10.11-3.84-1.11-.6-1.8-1.45-.49-2.13-.02-1.29.48-1.21.93,0Z"/>
      <path class="st89" d="M188.64,179.17c-9.49-1.11-13.75,1.59-21.9,5.12v-.47c-.96-.71-.83-1.72.47-1.86,1.94-3.2,17.84-5.72,21.44-2.8Z"/>
      <path class="st78" d="M107.09,110.68l.53.33-.82,4.52c1.09,2.27.72,3.6-1.11,4-.37,2.63-.37,5.27,0,7.92l.64.24c.02,1.23.28,2.39.76,3.49,2.22.63.8,3.32-.93,2.8.33,2.92.89,6.03,1.86,8.85,2.6,0,3.42,3.51,1.86,5.46,1.53,5.37,5.69,10.87,11.55,11.77,1.95.6,2.76,1.53,2.44,2.8.79,1.11.26,1.61-.93.93-6.04.09-8.52-.9-12.28-5.75-1.96-2.53-6.05-8.86-3.65-11.5-1.1-2.1-1.69-4.43-1.77-6.97-.09-1.69-.85-3.85-.83-5,.02-.99,1.27-1.25,1.29-2.21.01-.65-.69-1.32-.81-2-.69-3.78-.73-6.12-.12-9.9.66-4.09.94-6.2,2.33-10.25.25.14.24.3,0,.47Z"/>
      <path class="st74" d="M112.22,99.03c.25.13.24.29,0,.47-1.32,1.87-1.49,3.49-.5,4.85-1.93,1.66-3.24,3.83-3.94,6.51l-.68-.17v-.47c.54-1.59,2.69-6.01,2.75-6.36.09-.55-.77-.94-.68-1.59.1-.74,2.4-4.22,3.06-5.1.96.08.78,1.4,0,1.86Z"/>
      <path class="st39" d="M113.61,93.44c-.13,1.02.08,2.21,0,3.26,1.3.39.83,2.64-.47,2.8-.52,1.08-.83.93-.93-.47.07-.61-.06-1.25,0-1.86.17-1.8,1.11-2.59.47-4.19l.93.46Z"/>
      <path class="st37" d="M123.4,93.91c2.8,2.41,5.78,4.5,8.85,6.52l-19.11,4.19c-1.44-1.14-.89-3.76,0-5.12.06-1.19.41-2.13.47-2.8l9.79-2.8Z"/>
      <path class="st107" d="M129.46,164.73c1.12.94.04,3.43-1.4,3.26l-.46.95c-.6-.22-6.2,1.36-6.03,1.62,1.01,1.59,9.19,3.98,11.4,4.59.07.48-.2.71-.72.76-4.13-.92-8.38-2.26-12.58-2.8-4.51-2.69-9.43-1.97-14.16-2.85-2.83-.53-4.57-.69-4.01-4.14.18-.2.83-.31.93-.47.53.55,1.21.66,1.86.93,1.54-.35,3.19-.37,4.97-.06,2.75-.47,5.44-.6,8.08-.4.26-1.47,4.06-2.48,5.59-2.33.51-.35.65-.69.93-.93-.26-1.27-.05-1.29.93-.47,1.35.6,2.7,1.08,4.34,1.21l.32,1.12Z"/>
      <path class="st26" d="M190.04,153.08c.5-.34,1.73-.55,2.19-.26.98.6,4.76,5.29,4.33,6.79-2.13,1.26-6.92,1.96-8.39,3.26-1.08.96-1.4,2.8-1.4,4.19-.47-.67-1.78-3.11-1.94-3.2-.75-.44-3.48,1.11-4.58.87v-1.86s.31-1.02.31-1.02c1.29-.39,2.58-.67,3.88-.84l.88-.64c2.49.17,4.85-1.12,6.11-3.09-1.53-1.02-2.77-2.26-3.73-3.73-.03-1.47,1.54-1.74,2.33-.47Z"/>
      <path class="st128" d="M192.83,151.68c.41.15.41.31,0,.47-.5.58-1.43.89-2.8.93-.77-.02-1.59.28-2.33.47-.54,2.26-5.35,2.39-6.99,1.4l-1.33-.85c-5.14-7.68-10.14-15.46-15-23.33l.49-.97c.04-1.07.39-1.49,1.52-1.32.6.09,4.26,1.27,5,1.56,8.06,3.16,19.45,12.95,21.44,21.66Z"/>
      <path class="st128" d="M128.99,129.32c-1.03,2.93,1.38,5.92,2.8,8.39.61,1.77-1.06,1.01-2.23.48-1.57,1.33-3.07,2.57-5.17,2.98-.78,1.52-1.92,2.38-3.4,2.6-.08,1.25-.39,2.89-1.79,1.86-1.75-.35-2.46-4-1.4-5.12-.44-1.61-1.07-3.55-1.4-5.12,1.4.31.95-1.18,1.51-1.75s7.76-4.04,8.88-4.42c.86-.29,1.37-.52,2.19.12Z"/>
      <path class="st28" d="M159.28,127.45l.99.6c5.61,8.46,11.14,16.97,16.61,25.53l-.36.89c-2.39,1.48-6.3-1.62-8.24-3.37-4.81-4.34-8.89-13.04-10.7-19.24l.3-1.14c-2.74-.23-3.67-1-2.8-2.33-.4-.14-.4-.29,0-.47.54-1.05.47-1.68,1.86-2.33,1.38-.2,2.64.35,2.33,1.86Z"/>
      <path class="st31" d="M137.38,128.85c1.35-.31,1.73.27.93,1.4.63.13,1.16.42,1.61.87,4.34,9.31,9.32,18.14,14.93,26.49l-.23,1.06c.59.53.89.81,0,.93.43.52.12.97-.59,1.09-1.45.24-7.41-8.8-8.3-10.68-4.16-7.77-8.87-15.16-13.76-22.43-.29-.43-.25-.72.29-1.06,2.68-.26,3.59.3,5.13,2.33Z"/>
      <path class="st128" d="M137.38,128.85c-.06-.97-.21-1.67.77-2.26,1.76-1.05,14.54-1.45,15.9-.44.36.27.33,1.48,1.04,1.76-.06.12.06.33,0,.47.51,2.37-1.2,2.99-5.13,1.86-.42,1.37-4.32,2.23-5.13.93-.74,1.76-5.12-.06-6.52-.93-.29-.47-.6-.96-.93-1.4Z"/>
      <path class="st90" d="M132.25,126.52c.15.83.66,1.69,1.2,2.31,7.24,8.41,12.21,22.56,19.77,30.07.22.22,1.2,1.63,1.4.7,1.12-.26,1.41.25.47.93-.17,2.8-1.29,4.17-3.26,1.4-5.64-9.66-11.22-19.37-16.87-29.03l-4.1-5.92c.44-.24.9-.42,1.4-.47Z"/>
      <path class="st127" d="M164.87,129.78l15.84,25.16c-.63.89-1.97.8-1.86-.47l-1.71-.52c-5.51-8.49-11.04-17.01-16.58-25.56l-1.28-.95c-.84-.53-1.6-1.19-2.33-1.86,4.54-2.12,5.41,1.55,7.92,4.19Z"/>
      <path class="st73" d="M198.42,155.41c-.87,3.9-3.71.76-5.12-1.27-1.9-1.18-2.05-1.84-.47-1.99-.03-.15.03-.32,0-.47,2.66-.38,5.33.98,5.59,3.73Z"/>
      <path class="st137" d="M192.83,152.15c.02.14-.56.59-.41.87,1.55.87,4.27,5.08,6,2.39.21,2.16.02,3.08-1.86,4.19-2.61-2.09-2.2-6.38-6.52-6.52.61-.93,1.78-.99,2.8-.93Z"/>
      <path class="st82" d="M113.15,99.5c-.09,1.7.04,3.43,0,5.12-.02.78.04,1.57,0,2.33-2.44,3.38-4.95,7.71-2.94,11.8-1.87.72-1.77,1.18-1.31,2.99-.13,4.04.1,7.7,2.37,11.07-2.67,1.59.89,7.03,2.2,8.92,2.89,2.22,3.25,3.92,1.06,5.12,1.75,1.65,3.28,3.03,5.81,2.98l.72.9c1.92.92,3.91,5.42,3.26,7.45,1.31-.12,1.59.9.93,1.86,1.51.41,1,1.79-.47,1.4-.36.22-.8.3-1.1,0-3.19-3.21-4.96-4.97-9.33-6.99-2.03-1.83-6.25-7.63-2.56-9.12-2.59-.09-5.21-10.15-4.87-11.28,1.22-1.06,1.27-2.8.15-5.23-1.08-.24-1.19-2.99-.47-3.73-.4-1.83-.21-3.74,0-5.59.85-1.08.94-2.2.25-3.37,0-4.14,1.74-9.07,4.74-11.82-.88-1.4-.68-3.02.61-4.85.02-.15-.02-.31,0-.47l.93.47Z"/>
      <path class="st62" d="M113.15,106.95c0,.15,0,.31,0,.47-.09,2.89-2.55,4.82-2.84,9.09-.11,1.58,1.59,2.98-1.36,3.03.86,3.58.1,7.23,1.63,10.72.36.83,1.63,1.96,1.63,2.09,0,.22-1.33.89-1.41,1.89-.09,1.06,2.42,5.24,3.32,6s3.08,2.03,3.69.27c.52,1.9.75,3.19,1.4,5.12,1.64.5,2.8,3.69,1.86,5.12-1.28,0-3.04-.13-4.16-.73-.19-.1-2.97-2.35-3.08-2.51-1.01-1.62.93-1.63,1.11-1.94.78-1.31-1.35-2-1.95-2.86-.81-1.14-3.39-5.95-3.55-7.14-.37-2.68,1.46-2.52,1.38-2.76-.19-.53-1.23-1.45-1.62-2.58-1.13-3.33-.85-4.95-.69-8.16.04-.81-.52-1.83-.42-2.27.15-.64,1.77-1.05,1.78-1.44,0-.16-1.09-.82-1.29-1.49-.71-2.33,1.41-7.14,2.86-9.07.57-.75.42-1.11,1.7-.85Z"/>
      <path class="st41" d="M122.93,163.79c-2.35,1.62-3,1.67-5.59,2.33-3.65.31-7.81-3.47-10.18-6.12l-.07-1.33c.26-3.51-1.52-8.42-1.89-11.87-.2-1.94.14-4.96.02-7.23.66.8.4,1.87.7,2.8.36,1.1,1.99,3.57,2.04,4.04.08.83-1.1,1.2-1.28,1.88-.35,1.3,3.79,8.01,4.87,9.42.58.75,2.69,3.36,3.28,3.71,2.13,1.29,5.82.72,8.1,2.38Z"/>
      <path class="st33" d="M117.34,166.12c-4.14,1.05-9,2.15-13.05.47,2.11-.4,1.87-4.5,2.07-6.1.09-.7.72-1.65.73-1.82,3.21,2.91,5.99,5.98,10.25,7.45Z"/>
      <path class="st38" d="M159.28,183.83c-.93-.32-1.87-.61-2.8-.93-7.53-3.58-15.42-6.08-23.68-7.5-1.03-.31-7.4-2.43-7.8-2.92-1.82-2.21,2.02-4.72,2.59-2.16,4.35,2.46,8.46,1.6,13.23.53l8.7-2.63.9.71c.59,1.01,1.35,1.93,1.94,2.95,2.3,3.98,3.84,8.54,6.91,11.96Z"/>
      <path class="st22" d="M128.06,167.99c1.34.36.94,2.41-.47,2.33-.91-.64-4.25.64-.47,2.57,4.51,2.29,14.56,3.27,20.29,5.34,3.2,1.16,6.35,2.63,9.07,4.67-8.16-2.86-15.91-5.13-24.23-6.99.27-1.31-.65-.88-1.47-1.07-2.33-.54-4.71-.99-6.91-1.97-.7-.31-4.77-1.98-2.96-3.02s5.1-1.86,7.14-1.86Z"/>
      <path class="st112" d="M141.11,155.41c1.33.56.95,2.27-.47,2.33,1.1,1.1-.34,4.51-1.86,4.66.62.37.73,1.09.33,2.17,1.72-.57,3.44-.89,5.27-.77-.09-1.44,1.56-1.49,2.33-.47,1.15,1.9,2.58,3.62,3.73,5.59-5.68,1.64-16.67,6.12-22.06,2.7-.84-.53-.71-1.26-.77-1.3.34-.68.24-1.73.47-2.33.38-1.02.95-1.99,1.4-3.26-.77-1.35-.51-2.18.93-2.8.19.11.6.39.7.37,2.49-.42,5.3-12.69,5.36-15.28.89-1.04,4.36,5.58,4.55,6.41.15.67.13,1.3.11,1.97Z"/>
      <path class="st27" d="M131.79,137.7c.77,1.34,4.43,6.15,4.48,7.21-1.53,4.25-3.02,8.54-4.48,12.82-.28.47-.45.75-.92.97-.31.14-6.17.14-6.53-.5-1.06-2.27-2.35-5.15-3.26-7.45-.63-1.6-1.32-3.49-1.86-5.12,1.11-.42.73-2.5.99-2.74.15-.15,1.34-.01,2.08-.48.68-.43.88-1.53,1.46-1.93s1.78-.5,2.62-.99,2.52-2.06,2.98-2.18c1.14-.31,1.89,1.22,2.46.4Z"/>
      <path class="st36" d="M161.14,171.25c2.71,1.41,5.91,6.25,5.59,9.32.2.46.43.88.47,1.4-.16.26,0,1.43-.47,1.86-1.33.19-1.96-.18-2.8-1.16-1.99-2.33-3.91-6.77-5.59-9.56-.96-2.08,1.73-4.08,2.8-1.86Z"/>
      <path class="st24" d="M143.44,157.74c1.09,1.81,2.19,3.83,3.26,5.59-.7.33-1.68.25-2.33.47-2.84.65-4.7.19-5.59-1.4.48-1.48,1.56-3.57,1.86-4.66.42-1.42,2.2-1.24,2.8,0Z"/>
      <path class="st130" d="M158.81,167.52c1.24-.54,3.18,1.55,2.33,2.8,1.19.4,1.2.62,0,.93-1.89-.41-1.97.5-2.8,1.86-2.23-3.7-4.34-7.45-6.52-11.18,1.63,1.61,2.42.21,3.26-1.4l1,.65c-.18,2.98.73,5.1,2.73,6.33Z"/>
      <path class="st13" d="M131.79,157.74c-.48,1.39-.92,2.8-1.4,4.19-1.44-.04-4.8-.17-5.13-1.86-.62-.38-.64-1.23-.93-1.86,2.27-.96,5.01-.27,7.46-.47Z"/>
      <path class="st132" d="M143.44,157.74h-2.8c.14-.49.45-1.89.47-2.33,1.19-2.43,1.72,1.32,2.33,2.33Z"/>
      <path class="st99" d="M165.34,157.27c1.91.93,3.73,2.37,5.46,4.3,1.06-.11,1.88,0,2.46.36,1.3.69.86,1.41-.47,1.86-1.31.3-2.4,1.17-3.26,1.4-.7,1.57-7.15,2.91-8.19,2.37.21-2.03-4.3-3.39-2.13-1.08l-.4,1.04c-3.53-.3-3.44-4.55-3.73-6.99-.12-1.01-.08-.27-.47-.93-.09-.16.06-.66,0-.93.96-.35,2.15-.44,3.57-.27,1.6-.79,3.21-1.01,4.82-.67.47-1.4,1.35-1.56,2.33-.47Z"/>
      <path class="st133" d="M158.81,167.52c-.37-.54-1.51-1.98-1.64-2.34-.62-1.71,5.85-.69,4.44,1.87,2.59-.78,5.31-1.18,7.92-1.87l.42.22c-.36.83-1.06,1.72-.42,2.58h-.47c-.24,1-1.17,1.31-2.8.93-.07.44-.54.59-1.4.47-.2-.05-.72-.04-.93,0,.35,1.49-2.3,2.61-2.8.93-.47-.74-1.68-1.85-2.33-2.8Z"/>
      <path class="st3" d="M172.33,167.05c2.77.11,5.51.98,8.21,2.62,1.39-.03,2.53.64,3.44,2.04.51.78.92,1.64,1.4,2.33-.08.22-.17.42-.32.55-.64.56-14.2-4.83-16.06-5.58l.07-1.03c.14-.04.32.04.47,0,.93-.28,1.82-.66,2.8-.93Z"/>
      <path class="st109" d="M172.33,167.05c2.5-.68,4.98-1.68,7.59-1.89.44.1,3.44,5.61,4.05,6.55-.75.71-.66-.78-1.27-.94-.69-.18-1.55.12-2.47-.22-2.73-1-5.13-2.63-7.91-3.5Z"/>
      <path class="st152" d="M169.07,167.99l1.98,1.53,14.33,4.52c.32.46.65,1.02.93,1.4l-.22.42c-.82-.44-1.66-.71-2.58-.89-5.78-1.52-11.52-3.34-17.08-5.56l-.16-.5c.94-.34,1.83-.64,2.8-.93Z"/>
      <path class="st80" d="M179.32,160.07c.9.26.9.67,0,.93.55.99-.07,1.76-1.86,2.33-1.31.27-3.38.17-4.66.47.1-.62.41-1.24.47-1.86-1.07-.28-1.07-1.05,0-2.33,2.02.01,3.65-.26,5.59-.93,1.36-.21,1.47.46.47,1.4Z"/>
      <path class="st150" d="M184.44,161c-1.15,1.29-2.56,1.51-4.19,1.86-.85.18-1.85.27-2.8.47.53-.56,1.27-2.05,1.86-2.33.7-.84,5.33-1.87,5.13,0Z"/>
      <path class="st146" d="M163.94,169.38c-.22,1.14,1.71,1.62,2.48,1.95,3.37,1.42,7.41,1.86,10.1,4.35-3.18,1.64-8.05,1.21-9.78,4.89-1.52-3.4-3.64-6.2-5.59-9.32-.11-.17.11-.76,0-.93,1.08.26,2.04-.79,2.8-.93Z"/>
      <path class="st83" d="M166.27,168.92l17.24,6.06c-3.32-.66-6.68-1.41-9.99-2.36-2.51-.72-6.49-2.74-8.65-3.23.42-.3.94-.3,1.4-.47Z"/>
      <path class="st100" d="M107.09,128.85c.33,1.53,1.89,3.04,2.33,3.96.13.27-1.57.48-1.76,1.44-.35,1.85,1.66,7.4,2.95,9.01.89,1.11,3.03,1.36,1.64,3.1-.36.45-1.32.59-1.4.7-.39.56,3.32,5.97,4.15,6.73,1.81,1.66,4.35,2.02,6.24,3.55,1.06.86,2.73,2.93,3.56,4.12,1.22.21,1.09.41,0,.93-.27.18-.7.27-.93.47-2.05-2.48-5.3-2.35-7.42-3.53s-7.88-8.64-7.5-11.1c.12-.8,1.03-1.31.96-2.33-.06-.8-1.34-2.08-1.88-3.07-1.01-2.83-1.49-5.96-1.86-8.85.45-.73,1.38-.93,1.41-1.21.04-.32-.44-1.08-.48-1.58-.53-.74-1.03-2.09,0-2.33Z"/>
      <path class="st39" d="M106.62,119.53c-.2,1.83-.4,3.76,0,5.59.04,1.5.39,2.69.47,3.73.06.77-.07,1.56,0,2.33-1.44-.69-1.18-2.46-1.4-3.73-.38-2.65-.38-5.29,0-7.92.28-.58,1.27-1.35,1.28-1.62,0-.12-.81-1.11-.87-2.33-.09-1.83.88-3.17.98-4.9,1.78-.99,1.22-3.38,2.32-4.91.64-.9,1.81-1.07,1.88-1.16.35-.5-.94-1.36-.84-1.99.05-.36,1.18-2.87,1.78-3.13-.15,1.49-.81,2.96-.86,3.58s.73,1.04.74,1.32c.01.21-2.24,2.36-2.71,3.23-.97,1.81-2.13,6.42-1.87,8.43.12.94,1.03,1.95.96,2.28-.14.64-1.52.87-1.86,1.2Z"/>
      <path class="st74" d="M108.02,142.83c-.56-1.03-.93-1.32-1.28-2.68-.17-.66-1.02-5.12-1.02-5.52,0-.49.34-.51.43-.65,1.39,2.77,1.31,5.88,1.86,8.85Z"/>
      <path class="st74" d="M105.69,127.45c-.4-2.31-1.08-5.73,0-7.92v7.92Z"/>
      <path class="st92" d="M125.26,160.07l4.27.96c.47.06.65.78.86.9-.32.92-.61,1.87-.93,2.8-1.74-.9-4.29.12-4.66-2.33-.04-.26-.03-.67,0-.93.02-.18.71-.84.47-1.4Z"/>
      <path class="st15" d="M176.52,154.48c.09-1.03.87-1.03,2.33,0,.35.04.81.44,1.86.47,3.45.09,4.1-.66,6.99-1.4,1.81.73,3.54,1.45,3.73,3.73l-.72,1.03c-2.1.35-4.08.94-5.8,1.77-.89-.26-.89-.67,0-.93l-.96-.45c.12-2.89-5.47-2.46-5.1-.02-.23,1.82-4.84,2.66-5.59.93-.27-.08-.43-.39-.47-.93-.88.05-3.01-.76-2.8-1.86-3.55-.1-5.59-1.36-8.17-3.8-5.03-4.75-7.9-11.7-9.72-18.25l.65-1.25c-.41-1.22.52-1.31,1.38-.24,1.21-.57,2.02-1.39,2.56-2.64l1.18.08c1.85,2.65,2.15,5.52,3.48,8.41,3.03,6.59,7.55,13.77,15.16,15.36Z"/>
      <path class="st44" d="M191.43,157.27c.11,1.3-.05,2.06-1.22,2.74-.44.25-3.73,1.4-4.18,1.44-.8.08-1.16-.38-1.58-.46-1.04-.65-.75-1,.47-.93.42-.85.37-1.66.48-1.86.02-.04.58.29.96.19,1.68-.44,3.34-.97,5.09-1.12Z"/>
      <path class="st126" d="M178.85,154.48c-.73-.08-1.67.14-2.33,0l-17.24-27.02c.27.17,1.03-.17,1.88.67,3.12,3.08,8.09,13.22,10.96,17.47.66.98,1.88,1.67,2.53,2.6,1.37,1.94,2.16,4.81,4.2,6.29Z"/>
      <path class="st81" d="M155.09,128.38c-.41,1.54,1.49.69,2.51,1.36.47.31.21.86.29.97-.7.53-.79,1.46-1.43,2.07-.87.83-3.9,2.95-3.24.25-.23.05-.38.47-.46.48-.17.16-.36.31-.56.36-.47.13-2.04-2.89-2.24-3.62.1-.01.53-.42,1.13-.49,2.31-.27,2.99,1.04,4-1.38Z"/>
      <path class="st148" d="M144.84,131.18c1.41.42,2.33,1.64,2.76,3.67,2.68,8.4,6.53,17.46,14.82,21.63l.58,1.25c-2.8.64-5.28,2.88-8.39.93-1.51-.95-8.01-12.61-9.4-15.06-2.44-4.3-4.31-9.2-6.91-13.36,1.66-.51,5.34,1.16,6.52.93Z"/>
      <path class="st42" d="M149.96,130.25c1.73-.15,2.36,3.32,2.8,3.26,1.94,8.02,6.39,18.1,14.13,21.98.97.49,2.08.84,3.11,1.31-.73,1.13-2.23,1.29-3.26.47-.15.83-1.09.65-1.4,0-.77.17-1.58.29-2.33.47-6.09-2.29-10.43-8.46-13.13-14.13-1.95-4.09-2.75-8.62-5.04-12.43,1.79-.34,2.84-.66,5.13-.93Z"/>
      <path class="st100" d="M106.62,125.12c-.75-.93-.8-4.83,0-5.59.49,1.94-.05,3.68,0,5.59Z"/>
      <path class="st98" d="M144.37,163.79c-2.08.68-4.21,1.78-6.52,1.86-.13-1.21.58-2.19.93-3.26l5.59,1.4Z"/>
      <path class="st10" d="M166.74,157.27c1.57.48,3.16,1.37,4.78,2.69.33-.76.76-1.19,1.28-1.29.16.31.36.34.47.93s.06,1.72,0,2.33c-3.89,2.05-3.69-1.58-5.55-3.07-1.11-.89-2.59-.14-2.37-1.59.41-.09.97.08,1.4,0Z"/>
      <path class="st134" d="M184.91,159.13c-.36,1.4-4.39,1.25-5.59.93-.06-.51-.22-.95-.47-1.4-.51-.94-1.41-1.41-1.86-2.32,3.36.06,7.79-2.29,7.92,2.79Z"/>
      <path class="st111" d="M184.91,159.13c0,.31,0,.62,0,.93-.14.28-.3.75-.47.93-.43-.08-.82-.49-1.6-.47-.35,0-3.36.4-3.52.47-.02-.31.04-.63,0-.93l5.59-.93Z"/>
      <path class="st136" d="M170,156.8c1.19.55,1.79-.06,2.8,1.86-.02,4.99-4.56.21-6.06-1.4.86-.15,1.99-.87,3.26-.47Z"/>
    </g>
  </g>
</svg>